<svg width="592" height="155" viewBox="0 0 592 155" fill="none" xmlns="http://www.w3.org/2000/svg">
<rect x="2" y="2" width="588" height="151" rx="14" fill="#202220" fill-opacity="0.5"/>
<path d="M227.954 68.5V45.14H232.85L239.346 64.02C239.282 63.3373 239.207 62.5373 239.122 61.62C239.058 60.6813 239.005 59.732 238.962 58.772C238.919 57.7907 238.898 56.9373 238.898 56.212V45.14H242.546V68.5H237.65L231.218 49.62C231.261 50.2387 231.314 50.9853 231.378 51.86C231.442 52.7347 231.495 53.6307 231.538 54.548C231.581 55.4653 231.602 56.308 231.602 57.076V68.5H227.954ZM252.838 68.788C251.344 68.788 250.043 68.5107 248.934 67.956C247.846 67.38 246.992 66.58 246.374 65.556C245.776 64.5107 245.478 63.284 245.478 61.876V57.524C245.478 56.116 245.776 54.9 246.374 53.876C246.992 52.8307 247.846 52.0307 248.934 51.476C250.043 50.9 251.344 50.612 252.838 50.612C254.352 50.612 255.654 50.9 256.742 51.476C257.83 52.0307 258.672 52.8307 259.27 53.876C259.888 54.9 260.198 56.1053 260.198 57.492V61.876C260.198 63.284 259.888 64.5107 259.27 65.556C258.672 66.58 257.83 67.38 256.742 67.956C255.654 68.5107 254.352 68.788 252.838 68.788ZM252.838 65.3C253.904 65.3 254.726 65.012 255.302 64.436C255.899 63.8387 256.198 62.9853 256.198 61.876V57.524C256.198 56.3933 255.899 55.54 255.302 54.964C254.726 54.388 253.904 54.1 252.838 54.1C251.792 54.1 250.971 54.388 250.374 54.964C249.776 55.54 249.478 56.3933 249.478 57.524V61.876C249.478 62.9853 249.776 63.8387 250.374 64.436C250.971 65.012 251.792 65.3 252.838 65.3ZM281.293 68.5V64.98H285.997V48.66H281.293V45.14H294.733V48.66H290.029V64.98H294.733V68.5H281.293ZM297.664 68.5V50.9H300.928V53.268H301.6L301.056 53.844C301.056 52.8627 301.333 52.0733 301.888 51.476C302.443 50.8787 303.157 50.58 304.032 50.58C304.971 50.58 305.696 50.964 306.208 51.732C306.741 52.5 307.008 53.5347 307.008 54.836L306.304 53.268H307.392L306.976 53.844C306.976 52.8627 307.253 52.0733 307.808 51.476C308.363 50.8787 309.099 50.58 310.016 50.58C311.104 50.58 311.968 50.9853 312.608 51.796C313.248 52.6067 313.568 53.7053 313.568 55.092V68.5H310.048V55.252C310.048 54.676 309.92 54.228 309.664 53.908C309.408 53.5667 309.035 53.396 308.544 53.396C308.075 53.396 307.701 53.556 307.424 53.876C307.168 54.196 307.04 54.6547 307.04 55.252V68.5H304.16V55.252C304.16 54.6547 304.032 54.196 303.776 53.876C303.52 53.556 303.147 53.396 302.656 53.396C302.165 53.396 301.792 53.556 301.536 53.876C301.301 54.196 301.184 54.6547 301.184 55.252V68.5H297.664ZM321.236 68.82C319.422 68.82 317.993 68.34 316.948 67.38C315.902 66.42 315.38 65.1293 315.38 63.508C315.38 61.78 315.956 60.4467 317.108 59.508C318.26 58.5693 319.892 58.1 322.004 58.1H326.388V56.596C326.388 55.7427 326.11 55.0813 325.556 54.612C325.001 54.1213 324.244 53.876 323.284 53.876C322.409 53.876 321.684 54.068 321.108 54.452C320.532 54.836 320.19 55.3587 320.084 56.02H316.18C316.372 54.356 317.118 53.0333 318.42 52.052C319.721 51.0707 321.385 50.58 323.412 50.58C325.566 50.58 327.262 51.124 328.5 52.212C329.758 53.2787 330.388 54.7293 330.388 56.564V68.5H326.516V65.428H325.876L326.516 64.564C326.516 65.8653 326.036 66.9 325.076 67.668C324.116 68.436 322.836 68.82 321.236 68.82ZM322.548 65.812C323.678 65.812 324.596 65.524 325.3 64.948C326.025 64.372 326.388 63.6253 326.388 62.708V60.564H322.068C321.257 60.564 320.606 60.7987 320.116 61.268C319.625 61.7373 319.38 62.356 319.38 63.124C319.38 63.956 319.657 64.6173 320.212 65.108C320.788 65.5773 321.566 65.812 322.548 65.812ZM336.039 74.26V70.932H341.255C342.151 70.932 342.823 70.708 343.271 70.26C343.719 69.8333 343.943 69.2147 343.943 68.404V67.092L344.007 63.796H343.143L344.007 62.932C344.007 64.3613 343.58 65.4813 342.727 66.292C341.895 67.0813 340.764 67.476 339.335 67.476C337.543 67.476 336.114 66.868 335.047 65.652C334.002 64.436 333.479 62.7933 333.479 60.724V57.3C333.479 55.252 334.002 53.62 335.047 52.404C336.114 51.188 337.543 50.58 339.335 50.58C340.764 50.58 341.895 50.9853 342.727 51.796C343.58 52.5853 344.007 53.6947 344.007 55.124L343.143 54.26H344.007L343.911 50.9H347.911V68.5C347.911 70.2707 347.324 71.668 346.151 72.692C344.978 73.7373 343.367 74.26 341.319 74.26H336.039ZM340.679 64.02C341.703 64.02 342.492 63.7213 343.047 63.124C343.623 62.5053 343.911 61.652 343.911 60.564V57.492C343.911 56.404 343.623 55.5613 343.047 54.964C342.492 54.3453 341.703 54.036 340.679 54.036C339.655 54.036 338.866 54.3347 338.311 54.932C337.756 55.5293 337.479 56.3827 337.479 57.492V60.564C337.479 61.6733 337.756 62.5267 338.311 63.124C338.866 63.7213 339.655 64.02 340.679 64.02ZM358.395 68.82C356.901 68.82 355.6 68.532 354.491 67.956C353.381 67.38 352.517 66.58 351.899 65.556C351.301 64.5107 351.003 63.2947 351.003 61.908V57.492C351.003 56.1053 351.301 54.9 351.899 53.876C352.517 52.8307 353.381 52.02 354.491 51.444C355.6 50.868 356.901 50.58 358.395 50.58C359.867 50.58 361.147 50.868 362.235 51.444C363.344 52.02 364.197 52.8307 364.795 53.876C365.413 54.9 365.723 56.1053 365.723 57.492V60.66H354.875V61.908C354.875 63.1453 355.173 64.084 355.771 64.724C356.368 65.3427 357.253 65.652 358.427 65.652C359.323 65.652 360.048 65.5027 360.603 65.204C361.157 64.884 361.509 64.4253 361.659 63.828H365.595C365.296 65.3427 364.485 66.5587 363.163 67.476C361.861 68.372 360.272 68.82 358.395 68.82ZM361.851 58.42V57.46C361.851 56.244 361.563 55.316 360.987 54.676C360.411 54.0147 359.547 53.684 358.395 53.684C357.243 53.684 356.368 54.0147 355.771 54.676C355.173 55.3373 354.875 56.276 354.875 57.492V58.164L362.139 58.1L361.851 58.42ZM217.976 110.5L223.864 87.14H229.016L234.936 110.5H230.84L229.56 104.836H223.352L222.072 110.5H217.976ZM224.088 101.572H228.824L227.416 95.3C227.182 94.2547 226.979 93.316 226.808 92.484C226.638 91.6307 226.52 91.012 226.456 90.628C226.392 91.012 226.275 91.6307 226.104 92.484C225.955 93.316 225.752 94.244 225.496 95.268L224.088 101.572ZM241.484 110.5L235.692 92.9H239.788L243.148 103.588C243.34 104.228 243.521 104.889 243.692 105.572C243.884 106.255 244.022 106.799 244.108 107.204C244.214 106.799 244.353 106.255 244.524 105.572C244.694 104.889 244.865 104.239 245.036 103.62L248.332 92.9H252.396L246.636 110.5H241.484ZM259.679 110.82C257.866 110.82 256.437 110.34 255.391 109.38C254.346 108.42 253.823 107.129 253.823 105.508C253.823 103.78 254.399 102.447 255.551 101.508C256.703 100.569 258.335 100.1 260.447 100.1H264.831V98.596C264.831 97.7427 264.554 97.0813 263.999 96.612C263.445 96.1213 262.687 95.876 261.727 95.876C260.853 95.876 260.127 96.068 259.551 96.452C258.975 96.836 258.634 97.3587 258.527 98.02H254.623C254.815 96.356 255.562 95.0333 256.863 94.052C258.165 93.0707 259.829 92.58 261.855 92.58C264.01 92.58 265.706 93.124 266.943 94.212C268.202 95.2787 268.831 96.7293 268.831 98.564V110.5H264.959V107.428H264.319L264.959 106.564C264.959 107.865 264.479 108.9 263.519 109.668C262.559 110.436 261.279 110.82 259.679 110.82ZM260.991 107.812C262.122 107.812 263.039 107.524 263.743 106.948C264.469 106.372 264.831 105.625 264.831 104.708V102.564H260.511C259.701 102.564 259.05 102.799 258.559 103.268C258.069 103.737 257.823 104.356 257.823 105.124C257.823 105.956 258.101 106.617 258.655 107.108C259.231 107.577 260.01 107.812 260.991 107.812ZM272.051 110.5V106.852H278.195V96.516H272.851V92.9H282.035V106.852H287.475V110.5H272.051ZM279.795 89.956C278.984 89.956 278.344 89.7533 277.875 89.348C277.405 88.9213 277.171 88.356 277.171 87.652C277.171 86.948 277.405 86.3933 277.875 85.988C278.344 85.5613 278.984 85.348 279.795 85.348C280.605 85.348 281.245 85.5613 281.715 85.988C282.184 86.3933 282.419 86.948 282.419 87.652C282.419 88.356 282.184 88.9213 281.715 89.348C281.245 89.7533 280.605 89.956 279.795 89.956ZM299.494 110.5C298.342 110.5 297.329 110.265 296.454 109.796C295.601 109.327 294.929 108.665 294.438 107.812C293.948 106.937 293.702 105.935 293.702 104.804V90.756H288.07V87.14H297.702V104.804C297.702 105.444 297.884 105.956 298.246 106.34C298.63 106.703 299.142 106.884 299.782 106.884H305.094V110.5H299.494ZM312.442 110.82C310.628 110.82 309.199 110.34 308.154 109.38C307.108 108.42 306.586 107.129 306.586 105.508C306.586 103.78 307.162 102.447 308.314 101.508C309.466 100.569 311.098 100.1 313.21 100.1H317.594V98.596C317.594 97.7427 317.316 97.0813 316.762 96.612C316.207 96.1213 315.45 95.876 314.49 95.876C313.615 95.876 312.89 96.068 312.314 96.452C311.738 96.836 311.396 97.3587 311.29 98.02H307.386C307.578 96.356 308.324 95.0333 309.626 94.052C310.927 93.0707 312.591 92.58 314.618 92.58C316.772 92.58 318.468 93.124 319.706 94.212C320.964 95.2787 321.594 96.7293 321.594 98.564V110.5H317.722V107.428H317.082L317.722 106.564C317.722 107.865 317.242 108.9 316.282 109.668C315.322 110.436 314.042 110.82 312.442 110.82ZM313.754 107.812C314.884 107.812 315.802 107.524 316.506 106.948C317.231 106.372 317.594 105.625 317.594 104.708V102.564H313.274C312.463 102.564 311.812 102.799 311.322 103.268C310.831 103.737 310.586 104.356 310.586 105.124C310.586 105.956 310.863 106.617 311.418 107.108C311.994 107.577 312.772 107.812 313.754 107.812ZM333.485 110.82C332.035 110.82 330.883 110.415 330.029 109.604C329.176 108.772 328.749 107.641 328.749 106.212L329.645 107.14H328.749V110.5H324.845V87.14H328.845V92.068L328.717 96.26H329.645L328.749 97.188C328.749 95.7587 329.176 94.6387 330.029 93.828C330.883 92.996 332.035 92.58 333.485 92.58C335.256 92.58 336.675 93.188 337.741 94.404C338.808 95.62 339.341 97.2627 339.341 99.332V104.1C339.341 106.148 338.808 107.78 337.741 108.996C336.675 110.212 335.256 110.82 333.485 110.82ZM332.077 107.364C333.101 107.364 333.901 107.065 334.477 106.468C335.053 105.871 335.341 105.017 335.341 103.908V99.492C335.341 98.3827 335.053 97.5293 334.477 96.932C333.901 96.3347 333.101 96.036 332.077 96.036C331.075 96.036 330.285 96.3453 329.709 96.964C329.133 97.5613 328.845 98.404 328.845 99.492V103.908C328.845 104.996 329.133 105.849 329.709 106.468C330.285 107.065 331.075 107.364 332.077 107.364ZM352.257 110.5C351.105 110.5 350.091 110.265 349.217 109.796C348.363 109.327 347.691 108.665 347.201 107.812C346.71 106.937 346.465 105.935 346.465 104.804V90.756H340.833V87.14H350.465V104.804C350.465 105.444 350.646 105.956 351.009 106.34C351.393 106.703 351.905 106.884 352.545 106.884H357.857V110.5H352.257ZM367.188 110.82C365.695 110.82 364.394 110.532 363.284 109.956C362.175 109.38 361.311 108.58 360.692 107.556C360.095 106.511 359.796 105.295 359.796 103.908V99.492C359.796 98.1053 360.095 96.9 360.692 95.876C361.311 94.8307 362.175 94.02 363.284 93.444C364.394 92.868 365.695 92.58 367.188 92.58C368.66 92.58 369.94 92.868 371.028 93.444C372.138 94.02 372.991 94.8307 373.588 95.876C374.207 96.9 374.516 98.1053 374.516 99.492V102.66H363.668V103.908C363.668 105.145 363.967 106.084 364.564 106.724C365.162 107.343 366.047 107.652 367.22 107.652C368.116 107.652 368.842 107.503 369.396 107.204C369.951 106.884 370.303 106.425 370.452 105.828H374.388C374.09 107.343 373.279 108.559 371.956 109.476C370.655 110.372 369.066 110.82 367.188 110.82ZM370.644 100.42V99.46C370.644 98.244 370.356 97.316 369.78 96.676C369.204 96.0147 368.34 95.684 367.188 95.684C366.036 95.684 365.162 96.0147 364.564 96.676C363.967 97.3373 363.668 98.276 363.668 99.492V100.164L370.932 100.1L370.644 100.42Z" fill="#A33634"/>
<rect x="2" y="2" width="588" height="151" rx="14" stroke="#454C48" stroke-width="4" stroke-dasharray="8 8"/>
<path d="M89.7883 93.4849L84.5408 86.4206L86.1078 85.2567L87.1096 86.6053L87.5463 86.2809L87.3863 86.9778C86.9537 86.3955 86.7836 85.8176 86.8758 85.2442C86.9766 84.6644 87.3225 84.155 87.9133 83.7162C88.6069 83.201 89.3309 83.0219 90.0854 83.179C90.8484 83.3297 91.5194 83.7947 92.0982 84.5739L95.5424 89.2106L93.9369 90.4032L90.6167 85.9335C90.2987 85.5053 89.9425 85.2583 89.5481 85.1925C89.1537 85.1267 88.7553 85.2433 88.3529 85.5422C87.959 85.8348 87.7355 86.1868 87.6824 86.5983C87.6379 87.0035 87.781 87.4287 88.1117 87.8739L91.3938 92.2923L89.7883 93.4849ZM99.7976 86.2291C99.1982 86.6744 98.5932 86.951 97.9826 87.0592C97.3742 87.1524 96.7931 87.0857 96.2395 86.8591C95.6881 86.6177 95.2025 86.2143 94.7827 85.6492L93.4851 83.9024C93.0653 83.3373 92.8226 82.7601 92.7571 82.171C92.6937 81.567 92.7977 80.9915 93.069 80.4444C93.3426 79.8825 93.779 79.3789 94.3784 78.9337C94.9864 78.4821 95.5946 78.2097 96.203 78.1165C96.8051 78.0147 97.3818 78.0846 97.9332 78.326C98.4869 78.5526 98.9704 78.9442 99.3838 79.5007L100.691 81.2604C101.111 81.8255 101.352 82.4101 101.416 83.0141C101.481 83.6033 101.382 84.1756 101.117 84.7312C100.845 85.2782 100.406 85.7775 99.7976 86.2291ZM98.7577 84.8291C99.1858 84.5111 99.4296 84.1506 99.4891 83.7477C99.5507 83.3298 99.4162 82.8983 99.0854 82.453L97.7879 80.7062C97.4508 80.2524 97.0765 79.9989 96.665 79.9458C96.262 79.8864 95.8465 80.0156 95.4184 80.3337C94.9988 80.6453 94.755 81.0058 94.687 81.4151C94.6189 81.8244 94.7535 82.256 95.0906 82.7098L96.3882 84.4566C96.7189 84.9019 97.0932 85.1553 97.5111 85.217C97.9226 85.2701 98.3381 85.1408 98.7577 84.8291ZM107.542 80.2973C106.865 80.7998 106.194 81.0058 105.529 80.9152C104.873 80.8183 104.299 80.4402 103.81 79.7809L101.214 76.2873L99.3007 77.7089L98.2226 76.2575L100.136 74.8359L98.6575 72.8451L100.276 71.6429L101.755 73.6338L104.465 71.6206L105.543 73.072L102.833 75.0851L105.428 78.5787C105.759 79.024 106.142 79.0844 106.579 78.7601L108.506 77.3289L109.584 78.7803L107.542 80.2973ZM110.966 77.7536L104.001 68.3774L105.607 67.1848L107.324 69.4967L108.287 70.874L108.724 70.5496L108.564 71.2465C108.131 70.6642 107.961 70.0863 108.054 69.5129C108.154 68.9331 108.5 68.4237 109.091 67.9849C109.785 67.4697 110.509 67.2906 111.263 67.4477C112.026 67.5984 112.697 68.0634 113.276 68.8426L116.72 73.4793L115.115 74.6719L111.794 70.2022C111.476 69.774 111.12 69.527 110.726 69.4612C110.331 69.3954 109.933 69.512 109.531 69.8109C109.137 70.1035 108.913 70.4555 108.86 70.867C108.816 71.2722 108.959 71.6974 109.289 72.1426L112.572 76.561L110.966 77.7536ZM118.012 72.5194L116.925 71.0552L119.391 69.2233L116.309 65.0747L114.164 66.668L113.086 65.2166L116.772 62.4784L120.932 68.0784L123.116 66.4564L124.203 67.9207L118.012 72.5194ZM114.995 61.9646C114.67 62.2063 114.353 62.3157 114.044 62.293C113.728 62.2617 113.465 62.1047 113.255 61.8221C113.045 61.5396 112.974 61.247 113.042 60.9444C113.103 60.6332 113.296 60.3567 113.622 60.115C113.947 59.8733 114.267 59.7681 114.583 59.7994C114.892 59.8222 115.152 59.9749 115.362 60.2574C115.572 60.54 115.646 60.8369 115.585 61.1481C115.517 61.4507 115.321 61.7229 114.995 61.9646ZM125.085 67.2661L119.837 60.2018L121.404 59.0378L122.406 60.3865L122.842 60.0621L122.682 60.7589C122.25 60.1767 122.08 59.5988 122.172 59.0254C122.273 58.4456 122.619 57.9362 123.21 57.4973C123.903 56.9821 124.627 56.8031 125.382 56.9601C126.145 57.1109 126.816 57.5758 127.394 58.355L130.839 62.9918L129.233 64.1844L125.913 59.7146C125.595 59.2865 125.239 59.0395 124.844 58.9737C124.45 58.9079 124.052 59.0244 123.649 59.3234C123.255 59.616 123.032 59.968 122.979 60.3795C122.934 60.7846 123.077 61.2098 123.408 61.6551L126.69 66.0735L125.085 67.2661ZM134.824 63.6187L133.832 62.2829L135.926 60.7277C136.285 60.4606 136.488 60.1703 136.535 59.8569C136.587 59.5521 136.493 59.237 136.251 58.9116L135.86 58.385L134.903 57.043L134.556 57.3006L134.645 56.6962C135.071 57.2699 135.234 57.8466 135.133 58.4265C135.035 58.9913 134.698 59.4869 134.125 59.913C133.405 60.4473 132.65 60.6294 131.86 60.4594C131.078 60.283 130.378 59.7795 129.761 58.9489L128.74 57.5746C128.13 56.7526 127.853 55.9417 127.91 55.1419C127.975 54.3358 128.368 53.6656 129.087 53.1313C129.661 52.7052 130.235 52.5307 130.811 52.6081C131.389 52.6705 131.891 52.9885 132.317 53.5622L131.713 53.473L132.06 53.2154L131.019 51.8954L132.625 50.7028L137.872 57.7671C138.4 58.4778 138.581 59.2136 138.416 59.9744C138.256 60.7438 137.766 61.4338 136.944 62.0444L134.824 63.6187ZM133.634 58.1251C134.045 57.8198 134.273 57.4646 134.317 57.0595C134.364 56.6394 134.225 56.211 133.901 55.7743L132.985 54.5413C132.66 54.1046 132.293 53.8522 131.884 53.7842C131.477 53.7013 131.068 53.8125 130.657 54.1178C130.246 54.4231 130.018 54.7783 129.974 55.1834C129.929 55.5886 130.072 56.0138 130.403 56.459L131.319 57.6921C131.65 58.1373 132.015 58.3971 132.416 58.4715C132.817 58.5459 133.223 58.4304 133.634 58.1251Z" fill="#454C48"/>
<path d="M411.045 136.947C410.212 137.304 409.461 137.365 408.791 137.13C408.122 136.895 407.627 136.405 407.308 135.66C406.967 134.866 406.969 134.139 407.314 133.481C407.658 132.823 408.316 132.286 409.286 131.869L411.301 131.006L411.005 130.315C410.837 129.922 410.579 129.673 410.232 129.567C409.88 129.451 409.484 129.487 409.042 129.676C408.641 129.848 408.345 130.08 408.156 130.37C407.967 130.659 407.913 130.967 407.994 131.292L406.2 132.061C405.961 131.258 406.043 130.504 406.448 129.796C406.853 129.089 407.521 128.536 408.452 128.136C409.442 127.712 410.329 127.628 411.112 127.884C411.9 128.126 412.475 128.669 412.837 129.512L415.188 134.997L413.409 135.76L412.804 134.348L412.509 134.474L412.633 133.951C412.89 134.549 412.873 135.119 412.583 135.661C412.293 136.203 411.781 136.632 411.045 136.947ZM411.056 135.306C411.575 135.084 411.94 134.771 412.15 134.367C412.37 133.96 412.39 133.545 412.209 133.123L411.787 132.138L409.801 132.989C409.429 133.149 409.176 133.385 409.043 133.697C408.91 134.01 408.919 134.342 409.07 134.695C409.234 135.078 409.492 135.327 409.844 135.443C410.201 135.545 410.605 135.5 411.056 135.306ZM421.197 132.421C420.668 132.648 420.156 132.74 419.661 132.697C419.177 132.649 418.738 132.477 418.344 132.182C417.946 131.877 417.636 131.464 417.413 130.945L414.646 124.489L412.057 125.598L411.345 123.937L415.771 122.039L419.251 130.157C419.377 130.451 419.562 130.65 419.804 130.755C420.052 130.846 420.323 130.829 420.617 130.703L423.058 129.656L423.771 131.318L421.197 132.421ZM427.792 129.751C427.174 130.015 426.593 130.148 426.048 130.15C425.504 130.151 425.025 130.037 424.613 129.808C424.207 129.564 423.893 129.211 423.672 128.749L425.51 127.961C425.639 128.207 425.85 128.361 426.143 128.421C426.445 128.477 426.783 128.425 427.155 128.265L427.802 127.988C428.253 127.795 428.554 127.561 428.704 127.288C428.853 127.015 428.863 126.727 428.733 126.423C428.611 126.138 428.414 125.962 428.14 125.893C427.873 125.811 427.518 125.835 427.075 125.967L426.012 126.249C425.036 126.516 424.255 126.561 423.668 126.383C423.081 126.205 422.632 125.754 422.321 125.028C421.997 124.273 422.002 123.581 422.335 122.951C422.664 122.31 423.324 121.778 424.314 121.354L424.873 121.114C425.775 120.727 426.582 120.619 427.293 120.79C428.005 120.961 428.525 121.376 428.854 122.036L427.016 122.824C426.894 122.621 426.696 122.497 426.422 122.452C426.157 122.403 425.853 122.452 425.51 122.599L424.951 122.839C424.529 123.02 424.254 123.23 424.125 123.471C424.002 123.698 424.004 123.959 424.13 124.253C424.247 124.527 424.419 124.698 424.644 124.763C424.866 124.819 425.175 124.797 425.573 124.696L426.68 124.395C427.7 124.121 428.517 124.078 429.132 124.267C429.752 124.442 430.22 124.897 430.535 125.633C430.872 126.417 430.865 127.145 430.515 127.817C430.17 128.476 429.478 129.028 428.439 129.473L427.792 129.751ZM436.183 126.153C435.497 126.448 434.844 126.576 434.225 126.54C433.612 126.49 433.062 126.29 432.576 125.941C432.096 125.579 431.717 125.074 431.439 124.427L430.582 122.427C430.304 121.78 430.202 121.162 430.275 120.574C430.353 119.972 430.588 119.436 430.979 118.967C431.375 118.483 431.916 118.095 432.602 117.8C433.299 117.502 433.953 117.378 434.567 117.428C435.176 117.469 435.721 117.671 436.201 118.033C436.687 118.382 437.067 118.875 437.34 119.512L438.204 121.527C438.481 122.174 438.581 122.799 438.502 123.401C438.43 123.989 438.2 124.523 437.813 125.002C437.423 125.471 436.879 125.855 436.183 126.153ZM435.496 124.55C435.986 124.34 436.307 124.046 436.458 123.668C436.615 123.276 436.584 122.825 436.366 122.315L435.508 120.315C435.286 119.795 434.98 119.462 434.592 119.315C434.214 119.164 433.78 119.193 433.29 119.403C432.809 119.609 432.489 119.904 432.327 120.286C432.166 120.668 432.197 121.119 432.42 121.639L433.277 123.639C433.496 124.149 433.801 124.482 434.194 124.639C434.582 124.786 435.016 124.756 435.496 124.55ZM449.012 120.497L445.545 112.409L447.339 111.64L448.001 113.184L448.501 112.97L448.183 113.61C447.898 112.944 447.866 112.342 448.089 111.806C448.321 111.265 448.776 110.85 449.452 110.56C450.246 110.219 450.992 110.213 451.69 110.541C452.397 110.864 452.942 111.472 453.324 112.364L455.6 117.673L453.762 118.461L451.568 113.343C451.358 112.853 451.069 112.53 450.7 112.375C450.332 112.219 449.917 112.24 449.456 112.438C449.005 112.631 448.706 112.922 448.559 113.31C448.422 113.694 448.463 114.141 448.681 114.65L450.85 119.709L449.012 120.497ZM460.43 115.759C459.744 116.053 459.091 116.182 458.472 116.145C457.859 116.095 457.309 115.896 456.823 115.547C456.343 115.184 455.964 114.679 455.686 114.032L454.829 112.032C454.552 111.385 454.449 110.768 454.522 110.179C454.6 109.577 454.835 109.041 455.226 108.572C455.622 108.089 456.163 107.7 456.85 107.406C457.546 107.108 458.2 106.983 458.814 107.034C459.423 107.074 459.968 107.276 460.448 107.639C460.934 107.987 461.314 108.48 461.587 109.118L462.451 111.132C462.728 111.779 462.828 112.404 462.749 113.006C462.677 113.595 462.447 114.128 462.061 114.607C461.67 115.077 461.126 115.46 460.43 115.759ZM459.743 114.156C460.233 113.946 460.554 113.652 460.705 113.273C460.862 112.881 460.831 112.43 460.613 111.92L459.755 109.92C459.533 109.401 459.227 109.067 458.839 108.92C458.461 108.769 458.027 108.799 457.537 109.009C457.056 109.215 456.736 109.509 456.575 109.891C456.414 110.274 456.444 110.725 456.667 111.244L457.525 113.244C457.743 113.754 458.048 114.087 458.441 114.244C458.829 114.391 459.263 114.362 459.743 114.156ZM469.338 111.783C468.564 112.115 467.864 112.16 467.237 111.918C466.621 111.671 466.151 111.171 465.828 110.416L464.113 106.416L461.922 107.355L461.209 105.694L463.4 104.754L462.423 102.475L464.276 101.681L465.253 103.96L468.356 102.63L469.069 104.291L465.966 105.622L467.681 109.622C467.899 110.131 468.258 110.279 468.758 110.065L470.964 109.119L471.677 110.781L469.338 111.783ZM473.259 110.102L468.657 99.3674L470.495 98.5793L471.63 101.226L472.248 102.789L472.748 102.575L472.431 103.216C472.145 102.549 472.113 101.948 472.336 101.411C472.568 100.87 473.023 100.455 473.699 100.165C474.493 99.8248 475.239 99.8184 475.937 100.146C476.644 100.47 477.189 101.077 477.571 101.969L479.847 107.278L478.009 108.066L475.815 102.949C475.605 102.458 475.316 102.136 474.947 101.98C474.579 101.825 474.164 101.846 473.704 102.043C473.253 102.237 472.954 102.527 472.807 102.915C472.669 103.299 472.71 103.746 472.929 104.256L475.097 109.314L473.259 110.102ZM481.327 106.644L480.608 104.967L483.432 103.757L481.395 99.0071L478.939 100.06L478.227 98.3982L482.448 96.5889L485.196 103.001L487.696 101.929L488.415 103.605L481.327 106.644ZM480.838 95.6773C480.466 95.837 480.132 95.8699 479.836 95.7761C479.536 95.6725 479.317 95.4589 479.178 95.1354C479.04 94.8119 479.038 94.5108 479.174 94.232C479.306 93.9435 479.558 93.7194 479.93 93.5597C480.303 93.3999 480.639 93.3719 480.939 93.4755C481.234 93.5693 481.451 93.778 481.59 94.1015C481.729 94.425 481.732 94.7311 481.601 95.0196C481.465 95.2983 481.211 95.5176 480.838 95.6773ZM489.424 103.173L485.956 95.0847L487.751 94.3155L488.412 95.8596L488.912 95.6453L488.595 96.2861C488.31 95.6194 488.278 95.0179 488.501 94.4814C488.733 93.9408 489.187 93.5254 489.864 93.2355C490.658 92.895 491.404 92.8886 492.101 93.2163C492.809 93.5398 493.354 94.1476 493.736 95.0397L496.012 100.348L494.174 101.137L491.98 96.0189C491.77 95.5287 491.48 95.2059 491.112 95.0505C490.744 94.8951 490.329 94.9161 489.868 95.1137C489.417 95.307 489.118 95.5976 488.971 95.9856C488.834 96.3694 488.875 96.8162 489.093 97.326L491.262 102.385L489.424 103.173ZM499.744 101.882L499.088 100.353L501.485 99.3251C501.897 99.1486 502.162 98.9133 502.279 98.6191C502.401 98.3348 502.382 98.0064 502.222 97.6338L501.964 97.0309L501.344 95.5036L500.947 95.6738L501.174 95.1066C501.455 95.7634 501.48 96.3622 501.248 96.9028C501.021 97.4295 500.579 97.8336 499.922 98.1152C499.098 98.4682 498.322 98.4704 497.592 98.1217C496.872 97.7688 496.308 97.1169 495.901 96.166L495.226 94.5924C494.823 93.6513 494.741 92.7983 494.982 92.0336C495.233 91.2646 495.77 90.7036 496.593 90.3506C497.25 90.069 497.85 90.0325 498.392 90.2411C498.939 90.4358 499.354 90.8615 499.636 91.5184L499.068 91.2915L499.465 91.1213L498.759 89.5961L500.598 88.8081L504.065 96.8962C504.414 97.7099 504.419 98.4677 504.082 99.1694C503.749 99.8809 503.111 100.438 502.17 100.842L499.744 101.882ZM499.859 96.2622C500.329 96.0604 500.633 95.7677 500.771 95.3839C500.913 94.9861 500.878 94.5372 500.663 94.0372L500.058 92.6255C499.844 92.1255 499.545 91.795 499.163 91.634C498.786 91.4589 498.362 91.4723 497.892 91.674C497.421 91.8758 497.117 92.1685 496.98 92.5523C496.843 92.9361 496.884 93.3829 497.102 93.8927L497.707 95.3044C497.926 95.8142 498.221 96.1517 498.594 96.3169C498.967 96.4822 499.388 96.4639 499.859 96.2622Z" fill="#454C48"/>
<path d="M454.877 37.1994L461.753 31.7075L462.971 33.2327L461.658 34.2812L461.998 34.7062L461.296 34.5707C461.862 34.1181 462.434 33.9278 463.01 33.9999C463.593 34.0803 464.114 34.408 464.574 34.9831C465.113 35.6582 465.317 36.3755 465.187 37.1351C465.063 37.9029 464.622 38.5897 463.863 39.1955L459.35 42.8002L458.102 41.2375L462.452 37.7626C462.869 37.4298 463.103 37.0651 463.155 36.6687C463.207 36.2723 463.077 35.8782 462.764 35.4865C462.458 35.1031 462.098 34.892 461.685 34.8534C461.279 34.8231 460.859 34.981 460.425 35.3272L456.125 38.7621L454.877 37.1994ZM462.479 46.9483C462.013 46.3648 461.715 45.7699 461.586 45.1634C461.471 44.5586 461.517 43.9756 461.724 43.4144C461.946 42.8548 462.332 42.3554 462.883 41.916L464.583 40.558C465.133 40.1187 465.701 39.8559 466.288 39.7698C466.889 39.6853 467.468 39.769 468.024 40.021C468.595 40.2747 469.114 40.6932 469.58 41.2766C470.052 41.8684 470.346 42.4667 470.46 43.0715C470.583 43.6696 470.534 44.2484 470.312 44.808C470.105 45.3692 469.73 45.8662 469.188 46.2989L467.476 47.6669C466.926 48.1062 466.35 48.3681 465.748 48.4526C465.162 48.5388 464.587 48.4592 464.022 48.2139C463.466 47.9619 462.951 47.54 462.479 46.9483ZM463.841 45.8599C464.174 46.2766 464.543 46.5076 464.948 46.5529C465.368 46.5999 465.794 46.4503 466.228 46.1041L467.928 44.7461C468.37 44.3933 468.61 44.0104 468.648 43.5973C468.694 43.1925 468.55 42.7818 468.217 42.365C467.891 41.9566 467.522 41.7256 467.111 41.672C466.699 41.6184 466.273 41.7679 465.831 42.1208L464.131 43.4788C463.697 43.8249 463.457 44.2079 463.41 44.6276C463.371 45.0407 463.515 45.4515 463.841 45.8599ZM468.678 54.4796C468.152 53.8212 467.923 53.158 467.99 52.49C468.064 51.8304 468.422 51.2443 469.064 50.7317L472.464 48.0158L470.976 46.153L472.389 45.0247L473.877 46.8874L475.815 45.3397L477.073 46.9149L475.135 48.4626L477.242 51.1005L475.829 52.2289L473.722 49.591L470.322 52.307C469.888 52.6531 469.841 53.0387 470.181 53.4638L471.679 55.3391L470.266 56.4674L468.678 54.4796ZM471.34 57.8127L480.467 50.5235L481.715 52.0862L479.465 53.8835L478.122 54.8945L478.461 55.3196L477.759 55.1841C478.326 54.7314 478.898 54.5411 479.474 54.6132C480.057 54.6936 480.578 55.0214 481.038 55.5965C481.577 56.2716 481.781 56.9889 481.651 57.7484C481.527 58.5163 481.085 59.2031 480.327 59.8088L475.814 63.4135L474.566 61.8508L478.916 58.3759C479.333 58.0431 479.567 57.6784 479.619 57.282C479.671 56.8856 479.541 56.4915 479.228 56.0998C478.922 55.7164 478.562 55.5054 478.149 55.4667C477.743 55.4364 477.323 55.5944 476.889 55.9405L472.589 59.3754L471.34 57.8127ZM476.818 64.6713L478.244 63.533L480.161 65.9333L484.199 62.7081L482.531 60.6203L483.944 59.492L486.81 63.08L481.359 67.4336L483.057 69.5589L481.631 70.6972L476.818 64.6713ZM487.261 61.2862C487.008 60.9695 486.888 60.6562 486.899 60.3464C486.92 60.0299 487.067 59.7618 487.342 59.5421C487.617 59.3225 487.907 59.2411 488.212 59.2979C488.525 59.3482 488.808 59.5316 489.061 59.8484C489.314 60.1651 489.431 60.4817 489.41 60.7982C489.399 61.108 489.255 61.3728 488.98 61.5924C488.705 61.8121 488.411 61.8968 488.098 61.8466C487.793 61.7897 487.514 61.6029 487.261 61.2862ZM482.316 71.5549L489.192 66.063L490.411 67.5883L489.098 68.6367L489.437 69.0618L488.735 68.9263C489.302 68.4736 489.874 68.2833 490.45 68.3554C491.033 68.4358 491.554 68.7636 492.013 69.3387C492.553 70.0138 492.757 70.7311 492.626 71.4906C492.503 72.2585 492.061 72.9453 491.303 73.5511L486.79 77.1557L485.542 75.593L489.892 72.1181C490.309 71.7853 490.543 71.4207 490.595 71.0242C490.647 70.6278 490.517 70.2337 490.204 69.842C489.898 69.4586 489.538 69.2476 489.125 69.209C488.719 69.1786 488.299 69.3366 487.865 69.6827L483.565 73.1176L482.316 71.5549ZM486.303 81.161L487.603 80.1225L489.231 82.1603C489.51 82.5104 489.808 82.703 490.122 82.7383C490.429 82.7801 490.74 82.6746 491.057 82.4217L491.57 82.0123L492.877 81.0088L492.608 80.6712L493.215 80.7392C492.657 81.1852 492.086 81.368 491.503 81.2876C490.935 81.2088 490.428 80.8902 489.982 80.3318C489.423 79.6317 489.214 78.8836 489.356 78.0874C489.505 77.2996 489.984 76.5828 490.792 75.9371L492.13 74.8687C492.93 74.2296 493.731 73.9246 494.532 73.9535C495.34 73.9908 496.024 74.3595 496.583 75.0596C497.029 75.618 497.223 76.1862 497.166 76.7642C497.124 77.3439 496.824 77.8568 496.265 78.3028L496.333 77.6956L496.603 78.0332L497.886 76.9472L499.134 78.51L492.258 84.0018C491.566 84.5543 490.837 84.7612 490.071 84.6223C489.296 84.4901 488.59 84.0239 487.951 83.2238L486.303 81.161ZM491.751 79.7785C492.071 80.1786 492.434 80.3937 492.84 80.424C493.262 80.456 493.685 80.3023 494.11 79.9628L495.31 79.0042C495.735 78.6647 495.975 78.2892 496.028 77.8778C496.097 77.4681 495.972 77.0632 495.652 76.6631C495.332 76.263 494.969 76.0479 494.563 76.0176C494.157 75.9872 493.737 76.1452 493.303 76.4913L492.103 77.4499C491.67 77.7961 491.423 78.1707 491.363 78.5738C491.302 78.9769 491.432 79.3784 491.751 79.7785Z" fill="#454C48"/>
<path d="M129.468 82.5098L137.617 79.1887L138.354 80.9964L136.798 81.6304L137.003 82.1342L136.368 81.8055C137.04 81.5318 137.642 81.511 138.174 81.7433C138.711 81.9854 139.118 82.4473 139.396 83.1289C139.722 83.929 139.715 84.6748 139.375 85.3663C139.038 86.0677 138.421 86.6016 137.522 86.9679L132.173 89.1478L131.418 87.2957L136.575 85.1943C137.068 84.993 137.396 84.7096 137.558 84.3441C137.72 83.9786 137.707 83.5637 137.518 83.0994C137.332 82.6451 137.047 82.3409 136.662 82.1869C136.281 82.0428 135.833 82.0754 135.32 82.2847L130.223 84.3619L129.468 82.5098ZM134 94.0118C133.718 93.3203 133.601 92.6655 133.648 92.0471C133.71 91.4347 133.919 90.8886 134.277 90.4089C134.648 89.9351 135.16 89.5653 135.811 89.2996L137.827 88.4784C138.478 88.2127 139.098 88.1215 139.685 88.2049C140.285 88.2941 140.817 88.5383 141.279 88.9374C141.755 89.3423 142.134 89.8905 142.416 90.582C142.702 91.2833 142.814 91.9402 142.752 92.5527C142.701 93.1611 142.49 93.7022 142.118 94.1761C141.761 94.6558 141.261 95.0264 140.619 95.2881L138.589 96.1154C137.937 96.3811 137.311 96.4693 136.71 96.3801C136.123 96.2967 135.594 96.0575 135.122 95.6624C134.66 95.2633 134.286 94.7131 134 94.0118ZM135.615 93.3536C135.816 93.8475 136.105 94.1735 136.48 94.3315C136.869 94.4953 137.321 94.4726 137.834 94.2633L139.849 93.442C140.373 93.2287 140.712 92.9294 140.866 92.5441C141.024 92.1687 141.002 91.7341 140.801 91.2402C140.604 90.7561 140.315 90.4302 139.936 90.2623C139.556 90.0944 139.105 90.1172 138.581 90.3305L136.566 91.1517C136.053 91.3611 135.714 91.6604 135.55 92.0497C135.396 92.4349 135.418 92.8696 135.615 93.3536ZM137.814 102.99C137.496 102.21 137.464 101.509 137.717 100.887C137.975 100.275 138.484 99.8143 139.245 99.5043L143.275 97.8619L142.375 95.6542L144.049 94.9719L144.949 97.1796L147.246 96.2436L148.007 98.1105L145.71 99.0465L146.984 102.173L145.31 102.855L144.036 99.7288L140.005 101.371C139.492 101.581 139.338 101.937 139.543 102.441L140.449 104.663L138.774 105.346L137.814 102.99ZM139.424 106.94L150.24 102.532L150.995 104.384L148.328 105.471L146.754 106.061L146.96 106.565L146.325 106.236C146.996 105.962 147.598 105.941 148.131 106.174C148.667 106.416 149.074 106.878 149.352 107.559C149.678 108.359 149.671 109.105 149.331 109.797C148.995 110.498 148.377 111.032 147.478 111.398L142.129 113.578L141.375 111.726L146.531 109.625C147.025 109.423 147.353 109.14 147.515 108.774C147.677 108.409 147.663 107.994 147.474 107.53C147.289 107.075 147.004 106.771 146.618 106.617C146.237 106.473 145.79 106.506 145.276 106.715L140.179 108.792L139.424 106.94ZM142.737 115.069L144.426 114.38L145.585 117.225L150.371 115.275L149.363 112.8L151.037 112.118L152.77 116.371L146.31 119.003L147.337 121.522L145.647 122.211L142.737 115.069ZM153.711 114.778C153.558 114.402 153.531 114.068 153.63 113.774C153.739 113.476 153.956 113.261 154.282 113.128C154.608 112.995 154.909 112.999 155.186 113.14C155.472 113.277 155.691 113.533 155.844 113.908C155.997 114.284 156.019 114.62 155.91 114.918C155.811 115.212 155.599 115.425 155.273 115.558C154.947 115.691 154.641 115.689 154.354 115.552C154.078 115.411 153.864 115.153 153.711 114.778ZM146.062 123.227L154.211 119.906L154.948 121.714L153.392 122.348L153.597 122.851L152.962 122.523C153.634 122.249 154.236 122.228 154.768 122.461C155.305 122.703 155.712 123.165 155.989 123.846C156.316 124.646 156.309 125.392 155.968 126.084C155.632 126.785 155.015 127.319 154.116 127.685L148.767 129.865L148.012 128.013L153.168 125.912C153.662 125.71 153.99 125.427 154.152 125.061C154.314 124.696 154.301 124.281 154.112 123.817C153.926 123.362 153.641 123.058 153.256 122.904C152.875 122.76 152.427 122.793 151.913 123.002L146.817 125.079L146.062 123.227ZM147.166 133.569L148.707 132.941L149.692 135.356C149.861 135.771 150.091 136.04 150.383 136.163C150.665 136.289 150.994 136.276 151.369 136.123L151.977 135.876L153.515 135.284L153.352 134.884L153.915 135.121C153.253 135.39 152.654 135.404 152.118 135.162C151.595 134.926 151.199 134.477 150.929 133.815C150.591 132.985 150.603 132.208 150.965 131.485C151.331 130.772 151.993 130.22 152.951 129.829L154.536 129.183C155.484 128.797 156.339 128.731 157.099 128.985C157.863 129.25 158.415 129.797 158.753 130.626C159.022 131.288 159.048 131.888 158.83 132.426C158.625 132.971 158.192 133.377 157.53 133.647L157.767 133.084L157.93 133.484L159.468 132.806L160.223 134.658L152.074 137.979C151.254 138.313 150.496 138.305 149.8 137.955C149.095 137.609 148.549 136.962 148.163 136.014L147.166 133.569ZM152.783 133.785C152.977 134.259 153.264 134.568 153.645 134.712C154.04 134.862 154.49 134.835 154.993 134.629L156.416 134.05C156.92 133.844 157.255 133.552 157.423 133.172C157.605 132.799 157.599 132.375 157.406 131.901C157.213 131.427 156.926 131.118 156.544 130.974C156.163 130.829 155.716 130.862 155.202 131.071L153.78 131.651C153.266 131.86 152.923 132.15 152.751 132.519C152.579 132.889 152.59 133.311 152.783 133.785Z" fill="#454C48"/>
<path d="M277.861 136.505L275.854 127.937L277.754 127.492L278.138 129.127L278.667 129.003L278.243 129.579C278.078 128.873 278.151 128.275 278.464 127.786C278.787 127.294 279.307 126.964 280.023 126.796C280.865 126.599 281.6 126.722 282.23 127.166C282.87 127.608 283.301 128.301 283.523 129.246L284.84 134.87L282.893 135.326L281.623 129.905C281.501 129.386 281.272 129.018 280.937 128.8C280.601 128.583 280.189 128.532 279.701 128.646C279.223 128.758 278.878 128.992 278.666 129.349C278.464 129.703 278.426 130.15 278.553 130.69L279.808 136.049L277.861 136.505ZM289.93 133.826C289.203 133.996 288.537 134.009 287.934 133.866C287.339 133.71 286.832 133.417 286.414 132.99C286.004 132.549 285.719 131.986 285.558 131.3L285.062 129.182C284.902 128.496 284.908 127.87 285.082 127.303C285.264 126.724 285.588 126.237 286.055 125.843C286.529 125.436 287.13 125.148 287.857 124.977C288.594 124.805 289.261 124.796 289.856 124.953C290.449 125.099 290.95 125.392 291.36 125.833C291.778 126.261 292.066 126.812 292.224 127.487L292.724 129.622C292.885 130.307 292.874 130.94 292.692 131.519C292.518 132.086 292.199 132.571 291.735 132.976C291.269 133.37 290.667 133.653 289.93 133.826ZM289.532 132.128C290.051 132.006 290.418 131.772 290.633 131.426C290.856 131.067 290.904 130.618 290.777 130.078L290.281 127.959C290.152 127.409 289.909 127.027 289.553 126.815C289.207 126.6 288.774 126.554 288.255 126.675C287.746 126.795 287.379 127.028 287.154 127.377C286.929 127.725 286.88 128.175 287.009 128.725L287.506 130.844C287.632 131.384 287.875 131.765 288.234 131.988C288.59 132.2 289.023 132.247 289.532 132.128ZM295.642 135.298L292.978 123.926L294.878 123.481L295.261 125.116L295.698 125.014L295.367 125.568C295.204 124.872 295.284 124.278 295.607 123.786C295.928 123.284 296.441 122.95 297.147 122.785C298.009 122.583 298.769 122.717 299.427 123.187C300.085 123.658 300.531 124.391 300.765 125.388L301.308 127.71C301.464 128.374 301.481 128.984 301.359 129.538C301.245 130.08 301.006 130.536 300.644 130.905C300.281 131.275 299.809 131.528 299.227 131.664C298.521 131.83 297.914 131.764 297.406 131.466C296.896 131.159 296.559 130.657 296.396 129.961L296.938 130.311L296.487 130.417L297.027 132.443L297.589 134.842L295.642 135.298ZM298.148 130.142C298.646 130.026 299.002 129.789 299.214 129.433C299.426 129.076 299.469 128.628 299.343 128.088L298.839 125.938C298.713 125.398 298.475 125.015 298.127 124.79C297.778 124.565 297.355 124.511 296.856 124.628C296.368 124.742 296.019 124.983 295.809 125.349C295.597 125.706 295.553 126.149 295.677 126.679L296.18 128.829C296.304 129.358 296.542 129.741 296.893 129.976C297.241 130.201 297.66 130.257 298.148 130.142ZM307.073 129.827C306.346 129.997 305.679 130.005 305.074 129.851C304.468 129.697 303.956 129.406 303.538 128.978C303.128 128.538 302.844 127.98 302.686 127.305L302.182 125.155C302.024 124.48 302.032 123.859 302.206 123.292C302.388 122.713 302.716 122.22 303.191 121.813C303.665 121.406 304.266 121.117 304.993 120.947C305.709 120.779 306.365 120.773 306.961 120.93C307.566 121.084 308.074 121.381 308.484 121.822C308.902 122.25 309.19 122.801 309.348 123.476L309.71 125.018L304.429 126.256L304.571 126.863C304.712 127.465 304.965 127.888 305.328 128.132C305.69 128.365 306.156 128.414 306.727 128.281C307.163 128.179 307.499 128.023 307.735 127.814C307.969 127.595 308.088 127.332 308.093 127.024L310.009 126.575C310.036 127.347 309.78 128.031 309.241 128.629C308.709 129.213 307.987 129.613 307.073 129.827ZM307.569 124.37L307.46 123.902C307.321 123.31 307.075 122.891 306.722 122.645C306.366 122.389 305.908 122.327 305.347 122.458C304.786 122.589 304.398 122.85 304.182 123.24C303.967 123.63 303.929 124.121 304.067 124.713L304.144 125.04L307.673 124.181L307.569 124.37Z" fill="#454C48"/>
<path d="M210.822 41.5607L208.405 33.0991L210.282 32.563L210.744 34.1784L211.267 34.029L210.871 34.6245C210.672 33.9271 210.717 33.3264 211.005 32.8224C211.304 32.3154 211.808 31.9609 212.515 31.7588C213.346 31.5215 214.087 31.6094 214.737 32.0226C215.398 32.4329 215.862 33.1047 216.128 34.0381L217.715 39.592L215.792 40.1413L214.262 34.7874C214.116 34.2746 213.87 33.9178 213.524 33.717C213.178 33.5163 212.764 33.4848 212.282 33.6224C211.811 33.7572 211.477 34.0077 211.282 34.374C211.098 34.7374 211.081 35.1857 211.234 35.719L212.746 41.0114L210.822 41.5607ZM222.753 38.3193C221.676 38.6269 220.745 38.5712 219.959 38.1521C219.171 37.7227 218.629 36.9901 218.333 35.9542L216.83 30.6926L218.753 30.1433L220.252 35.3895C220.407 35.9331 220.661 36.3155 221.012 36.5368C221.361 36.7478 221.781 36.783 222.274 36.6424C222.756 36.5047 223.089 36.2542 223.274 35.8908C223.466 35.5143 223.484 35.0542 223.329 34.5106L221.83 29.2644L223.753 28.7151L225.256 33.9767C225.552 35.0126 225.474 35.9225 225.021 36.7063C224.565 37.4799 223.809 38.0175 222.753 38.3193ZM232.457 35.3811C231.903 35.5393 231.383 35.5656 230.898 35.4601C230.424 35.3516 230.01 35.126 229.657 34.7831C229.301 34.4299 229.045 33.9816 228.89 33.438L226.961 26.6841L224.253 27.4575L223.756 25.7191L228.387 24.3963L230.813 32.8887C230.901 33.1964 231.058 33.4176 231.285 33.5524C231.52 33.6741 231.791 33.6909 232.099 33.603L234.652 32.8736L235.149 34.612L232.457 35.3811ZM240.912 32.9658C240.358 33.124 239.839 33.1503 239.354 33.0448C238.879 32.9364 238.465 32.7107 238.112 32.3678C237.756 32.0147 237.501 31.5663 237.345 31.0227L235.416 24.2689L232.709 25.0423L232.212 23.3038L236.843 21.9811L239.268 30.4734C239.356 30.7811 239.514 31.0024 239.741 31.1372C239.975 31.2588 240.246 31.2757 240.554 31.1878L243.108 30.4583L243.605 32.1968L240.912 32.9658Z" fill="#454C48"/>
<path d="M336.397 19.7103C335.377 19.2472 334.704 18.6017 334.377 17.7738C334.055 16.9362 334.116 16.0269 334.561 15.046L336.824 10.0636L338.645 10.8905L336.389 15.8583C336.155 16.373 336.101 16.8286 336.225 17.2249C336.354 17.6115 336.652 17.9107 337.118 18.1223C337.575 18.3296 337.991 18.3546 338.367 18.1973C338.757 18.0348 339.069 17.6961 339.303 17.1813L341.559 12.2135L343.38 13.0404L341.117 18.0228C340.672 19.0037 340.023 19.6462 339.17 19.9502C338.322 20.2445 337.398 20.1645 336.397 19.7103ZM341.222 21.7252L344.86 13.7126L346.637 14.5196L345.943 16.0493L346.438 16.2742L345.751 16.4718C346.051 15.8114 346.474 15.3826 347.02 15.1855C347.576 14.9929 348.189 15.0487 348.86 15.353C349.646 15.7102 350.154 16.2569 350.382 16.993C350.619 17.7336 350.538 18.5458 350.136 19.4296L347.748 24.6888L345.927 23.8619L348.229 18.7921C348.45 18.3065 348.493 17.8752 348.36 17.4983C348.226 17.1214 347.931 16.8293 347.475 16.6221C347.028 16.4192 346.612 16.3942 346.226 16.5471C345.85 16.7044 345.548 17.0355 345.318 17.5406L343.043 22.5521L341.222 21.7252ZM351.726 26.6709C350.93 26.3093 350.41 25.7392 350.166 24.9607C349.932 24.1866 350.026 23.3334 350.45 22.401L351.435 20.2303C351.863 19.2882 352.445 18.6506 353.182 18.3175C353.919 17.9844 354.691 18.0009 355.497 18.3669C356.158 18.6668 356.596 19.0944 356.812 19.6495C357.033 20.195 356.996 20.7931 356.701 21.4438L356.485 20.8361L356.907 21.028L357.715 19.093L358.734 16.8495L360.555 17.6764L355.726 28.3113L353.949 27.5043L354.643 25.9746L354.235 25.7894L354.835 25.5521C354.54 26.2028 354.112 26.6294 353.551 26.8318C352.995 27.0244 352.387 26.9708 351.726 26.6709ZM353.082 25.3886C353.548 25.6003 353.969 25.6275 354.345 25.4702C354.735 25.3076 355.043 24.9787 355.268 24.4834L356.181 22.4729C356.406 21.9776 356.449 21.5344 356.31 21.1434C356.185 20.7471 355.89 20.4431 355.424 20.2314C354.957 20.0197 354.531 19.9903 354.146 20.1432C353.76 20.296 353.453 20.625 353.223 21.13L352.31 23.1405C352.081 23.6455 352.036 24.0935 352.174 24.4846C352.313 24.8756 352.616 25.1769 353.082 25.3886ZM360.433 30.6242C359.753 30.3155 359.22 29.9154 358.834 29.4238C358.448 28.9323 358.22 28.3895 358.15 27.7954C358.094 27.196 358.21 26.5806 358.496 25.9493L359.409 23.9389C359.696 23.3076 360.081 22.8206 360.565 22.4779C361.062 22.1299 361.623 21.9394 362.247 21.9065C362.871 21.8736 363.523 22.0115 364.203 22.3202C364.873 22.6245 365.397 23.0202 365.773 23.5074C366.159 23.999 366.38 24.5444 366.436 25.1438C366.506 25.7379 366.397 26.3506 366.111 26.9819L365.456 28.4242L360.517 26.1816L360.259 26.7498C360.003 27.3131 359.945 27.8022 360.085 28.217C360.229 28.6222 360.568 28.946 361.102 29.1886C361.51 29.3738 361.871 29.4558 362.185 29.4344C362.504 29.4034 362.759 29.2674 362.951 29.0263L364.743 29.84C364.293 30.4678 363.673 30.8538 362.881 30.998C362.103 31.1369 361.287 31.0123 360.433 30.6242ZM364.156 26.6039L364.354 26.1669C364.606 25.6133 364.667 25.1313 364.537 24.7208C364.411 24.3007 364.086 23.9715 363.562 23.7334C363.037 23.4952 362.571 23.4649 362.162 23.6425C361.753 23.8201 361.423 24.1857 361.172 24.7393L361.033 25.0453L364.353 26.5178L364.156 26.6039ZM367.107 33.4793L369.594 28.0015L367.395 27.0026L368.142 25.3564L370.342 26.3553L370.891 25.1461C371.209 24.4468 371.695 23.9942 372.351 23.7883C373.007 23.5823 373.718 23.6536 374.486 24.002L376.831 25.067L376.104 26.6695L373.802 25.6243C373.569 25.5185 373.348 25.5005 373.141 25.5703C372.948 25.6348 372.8 25.7788 372.699 26.0022L372.163 27.1822L375.237 28.578L374.489 30.2242L371.416 28.8284L368.928 34.3062L367.107 33.4793ZM373.235 36.2617L373.989 34.6009L376.786 35.871L378.923 31.1654L376.49 30.0606L377.237 28.4144L381.418 30.313L378.534 36.6648L381.011 37.7894L380.257 39.4502L373.235 36.2617ZM381.007 28.5096C380.638 28.342 380.389 28.1175 380.259 27.8359C380.133 27.5446 380.143 27.2387 380.289 26.9182C380.435 26.5977 380.656 26.3937 380.953 26.3062C381.255 26.209 381.591 26.2442 381.96 26.4118C382.329 26.5793 382.576 26.8088 382.702 27.1C382.832 27.3816 382.824 27.6826 382.678 28.0031C382.533 28.3236 382.309 28.5325 382.007 28.6297C381.71 28.7172 381.376 28.6772 381.007 28.5096ZM381.256 39.9041L384.895 31.8914L386.672 32.6985L385.977 34.2282L386.473 34.4531L385.786 34.6506C386.085 33.9902 386.509 33.5615 387.055 33.3644C387.611 33.1717 388.224 33.2275 388.894 33.5318C389.681 33.8891 390.188 34.4357 390.416 35.1719C390.654 35.9125 390.572 36.7246 390.171 37.6085L387.783 42.8677L385.962 42.0408L388.264 36.971C388.485 36.4853 388.528 36.0541 388.395 35.6772C388.261 35.3003 387.966 35.0082 387.51 34.8009C387.063 34.5981 386.647 34.5731 386.261 34.7259C385.885 34.8832 385.582 35.2144 385.353 35.7194L383.077 40.731L381.256 39.9041ZM392.46 45.1673C391.781 44.8586 391.248 44.4585 390.862 43.9669C390.476 43.4754 390.248 42.9325 390.178 42.3385C390.122 41.7391 390.237 41.1237 390.524 40.4924L391.437 38.482C391.724 37.8507 392.109 37.3637 392.592 37.021C393.09 36.673 393.651 36.4825 394.275 36.4496C394.899 36.4167 395.551 36.5546 396.231 36.8633C396.901 37.1676 397.424 37.5633 397.801 38.0505C398.187 38.542 398.408 39.0875 398.463 39.6869C398.533 40.281 398.425 40.8937 398.138 41.525L397.483 42.9672L392.545 40.7247L392.287 41.2929C392.031 41.8562 391.973 42.3453 392.113 42.7601C392.257 43.1653 392.596 43.4891 393.13 43.7317C393.538 43.9169 393.899 43.9988 394.213 43.9775C394.532 43.9465 394.787 43.8105 394.978 43.5694L396.77 44.3831C396.321 45.0109 395.701 45.3969 394.909 45.5411C394.131 45.68 393.315 45.5554 392.46 45.1673ZM396.184 41.147L396.382 40.71C396.634 40.1564 396.694 39.6743 396.564 39.2639C396.439 38.8437 396.114 38.5146 395.589 38.2765C395.065 38.0383 394.598 38.008 394.19 38.1856C393.781 38.3632 393.451 38.7288 393.2 39.2824L393.061 39.5884L396.381 41.0609L396.184 41.147ZM399.768 48.4856C398.972 48.1239 398.452 47.5539 398.208 46.7753C397.973 46.0012 398.068 45.148 398.491 44.2156L399.477 42.0449C399.905 41.1028 400.487 40.4652 401.224 40.1321C401.961 39.799 402.733 39.8155 403.539 40.1816C404.199 40.4814 404.638 40.909 404.854 41.4642C405.075 42.0096 405.038 42.6077 404.742 43.2585L404.526 42.6507L404.949 42.8426L405.757 40.9077L406.776 38.6641L408.597 39.491L403.768 50.126L401.99 49.3189L402.685 47.7892L402.277 47.604L402.877 47.3668C402.581 48.0175 402.153 48.444 401.593 48.6464C401.037 48.8391 400.429 48.7855 399.768 48.4856ZM401.124 47.2032C401.59 47.4149 402.011 47.4421 402.387 47.2848C402.777 47.1223 403.084 46.7933 403.309 46.298L404.222 44.2875C404.447 43.7922 404.49 43.349 404.352 42.958C404.227 42.5617 403.932 42.2577 403.465 42.046C402.999 41.8343 402.573 41.8049 402.187 41.9578C401.802 42.1107 401.494 42.4396 401.265 42.9447L400.352 44.9551C400.123 45.4601 400.077 45.9082 400.216 46.2992C400.355 46.6902 400.657 46.9916 401.124 47.2032Z" fill="#454C48"/>
</svg>
