<svg width="592" height="213" viewBox="0 0 592 213" fill="none" xmlns="http://www.w3.org/2000/svg">
<rect x="2" y="2" width="588" height="209" rx="14" fill="#202220" fill-opacity="0.5"/>
<path d="M227.954 97.5V74.14H232.85L239.346 93.02C239.282 92.3373 239.207 91.5373 239.122 90.62C239.058 89.6813 239.005 88.732 238.962 87.772C238.919 86.7907 238.898 85.9373 238.898 85.212V74.14H242.546V97.5H237.65L231.218 78.62C231.261 79.2387 231.314 79.9853 231.378 80.86C231.442 81.7347 231.495 82.6307 231.538 83.548C231.581 84.4653 231.602 85.308 231.602 86.076V97.5H227.954ZM252.838 97.788C251.344 97.788 250.043 97.5107 248.934 96.956C247.846 96.38 246.992 95.58 246.374 94.556C245.776 93.5107 245.478 92.284 245.478 90.876V86.524C245.478 85.116 245.776 83.9 246.374 82.876C246.992 81.8307 247.846 81.0307 248.934 80.476C250.043 79.9 251.344 79.612 252.838 79.612C254.352 79.612 255.654 79.9 256.742 80.476C257.83 81.0307 258.672 81.8307 259.27 82.876C259.888 83.9 260.198 85.1053 260.198 86.492V90.876C260.198 92.284 259.888 93.5107 259.27 94.556C258.672 95.58 257.83 96.38 256.742 96.956C255.654 97.5107 254.352 97.788 252.838 97.788ZM252.838 94.3C253.904 94.3 254.726 94.012 255.302 93.436C255.899 92.8387 256.198 91.9853 256.198 90.876V86.524C256.198 85.3933 255.899 84.54 255.302 83.964C254.726 83.388 253.904 83.1 252.838 83.1C251.792 83.1 250.971 83.388 250.374 83.964C249.776 84.54 249.478 85.3933 249.478 86.524V90.876C249.478 91.9853 249.776 92.8387 250.374 93.436C250.971 94.012 251.792 94.3 252.838 94.3ZM281.293 97.5V93.98H285.997V77.66H281.293V74.14H294.733V77.66H290.029V93.98H294.733V97.5H281.293ZM297.664 97.5V79.9H300.928V82.268H301.6L301.056 82.844C301.056 81.8627 301.333 81.0733 301.888 80.476C302.443 79.8787 303.157 79.58 304.032 79.58C304.971 79.58 305.696 79.964 306.208 80.732C306.741 81.5 307.008 82.5347 307.008 83.836L306.304 82.268H307.392L306.976 82.844C306.976 81.8627 307.253 81.0733 307.808 80.476C308.363 79.8787 309.099 79.58 310.016 79.58C311.104 79.58 311.968 79.9853 312.608 80.796C313.248 81.6067 313.568 82.7053 313.568 84.092V97.5H310.048V84.252C310.048 83.676 309.92 83.228 309.664 82.908C309.408 82.5667 309.035 82.396 308.544 82.396C308.075 82.396 307.701 82.556 307.424 82.876C307.168 83.196 307.04 83.6547 307.04 84.252V97.5H304.16V84.252C304.16 83.6547 304.032 83.196 303.776 82.876C303.52 82.556 303.147 82.396 302.656 82.396C302.165 82.396 301.792 82.556 301.536 82.876C301.301 83.196 301.184 83.6547 301.184 84.252V97.5H297.664ZM321.236 97.82C319.422 97.82 317.993 97.34 316.948 96.38C315.902 95.42 315.38 94.1293 315.38 92.508C315.38 90.78 315.956 89.4467 317.108 88.508C318.26 87.5693 319.892 87.1 322.004 87.1H326.388V85.596C326.388 84.7427 326.11 84.0813 325.556 83.612C325.001 83.1213 324.244 82.876 323.284 82.876C322.409 82.876 321.684 83.068 321.108 83.452C320.532 83.836 320.19 84.3587 320.084 85.02H316.18C316.372 83.356 317.118 82.0333 318.42 81.052C319.721 80.0707 321.385 79.58 323.412 79.58C325.566 79.58 327.262 80.124 328.5 81.212C329.758 82.2787 330.388 83.7293 330.388 85.564V97.5H326.516V94.428H325.876L326.516 93.564C326.516 94.8653 326.036 95.9 325.076 96.668C324.116 97.436 322.836 97.82 321.236 97.82ZM322.548 94.812C323.678 94.812 324.596 94.524 325.3 93.948C326.025 93.372 326.388 92.6253 326.388 91.708V89.564H322.068C321.257 89.564 320.606 89.7987 320.116 90.268C319.625 90.7373 319.38 91.356 319.38 92.124C319.38 92.956 319.657 93.6173 320.212 94.108C320.788 94.5773 321.566 94.812 322.548 94.812ZM336.039 103.26V99.932H341.255C342.151 99.932 342.823 99.708 343.271 99.26C343.719 98.8333 343.943 98.2147 343.943 97.404V96.092L344.007 92.796H343.143L344.007 91.932C344.007 93.3613 343.58 94.4813 342.727 95.292C341.895 96.0813 340.764 96.476 339.335 96.476C337.543 96.476 336.114 95.868 335.047 94.652C334.002 93.436 333.479 91.7933 333.479 89.724V86.3C333.479 84.252 334.002 82.62 335.047 81.404C336.114 80.188 337.543 79.58 339.335 79.58C340.764 79.58 341.895 79.9853 342.727 80.796C343.58 81.5853 344.007 82.6947 344.007 84.124L343.143 83.26H344.007L343.911 79.9H347.911V97.5C347.911 99.2707 347.324 100.668 346.151 101.692C344.978 102.737 343.367 103.26 341.319 103.26H336.039ZM340.679 93.02C341.703 93.02 342.492 92.7213 343.047 92.124C343.623 91.5053 343.911 90.652 343.911 89.564V86.492C343.911 85.404 343.623 84.5613 343.047 83.964C342.492 83.3453 341.703 83.036 340.679 83.036C339.655 83.036 338.866 83.3347 338.311 83.932C337.756 84.5293 337.479 85.3827 337.479 86.492V89.564C337.479 90.6733 337.756 91.5267 338.311 92.124C338.866 92.7213 339.655 93.02 340.679 93.02ZM358.395 97.82C356.901 97.82 355.6 97.532 354.491 96.956C353.381 96.38 352.517 95.58 351.899 94.556C351.301 93.5107 351.003 92.2947 351.003 90.908V86.492C351.003 85.1053 351.301 83.9 351.899 82.876C352.517 81.8307 353.381 81.02 354.491 80.444C355.6 79.868 356.901 79.58 358.395 79.58C359.867 79.58 361.147 79.868 362.235 80.444C363.344 81.02 364.197 81.8307 364.795 82.876C365.413 83.9 365.723 85.1053 365.723 86.492V89.66H354.875V90.908C354.875 92.1453 355.173 93.084 355.771 93.724C356.368 94.3427 357.253 94.652 358.427 94.652C359.323 94.652 360.048 94.5027 360.603 94.204C361.157 93.884 361.509 93.4253 361.659 92.828H365.595C365.296 94.3427 364.485 95.5587 363.163 96.476C361.861 97.372 360.272 97.82 358.395 97.82ZM361.851 87.42V86.46C361.851 85.244 361.563 84.316 360.987 83.676C360.411 83.0147 359.547 82.684 358.395 82.684C357.243 82.684 356.368 83.0147 355.771 83.676C355.173 84.3373 354.875 85.276 354.875 86.492V87.164L362.139 87.1L361.851 87.42ZM217.976 139.5L223.864 116.14H229.016L234.936 139.5H230.84L229.56 133.836H223.352L222.072 139.5H217.976ZM224.088 130.572H228.824L227.416 124.3C227.182 123.255 226.979 122.316 226.808 121.484C226.638 120.631 226.52 120.012 226.456 119.628C226.392 120.012 226.275 120.631 226.104 121.484C225.955 122.316 225.752 123.244 225.496 124.268L224.088 130.572ZM241.484 139.5L235.692 121.9H239.788L243.148 132.588C243.34 133.228 243.521 133.889 243.692 134.572C243.884 135.255 244.022 135.799 244.108 136.204C244.214 135.799 244.353 135.255 244.524 134.572C244.694 133.889 244.865 133.239 245.036 132.62L248.332 121.9H252.396L246.636 139.5H241.484ZM259.679 139.82C257.866 139.82 256.437 139.34 255.391 138.38C254.346 137.42 253.823 136.129 253.823 134.508C253.823 132.78 254.399 131.447 255.551 130.508C256.703 129.569 258.335 129.1 260.447 129.1H264.831V127.596C264.831 126.743 264.554 126.081 263.999 125.612C263.445 125.121 262.687 124.876 261.727 124.876C260.853 124.876 260.127 125.068 259.551 125.452C258.975 125.836 258.634 126.359 258.527 127.02H254.623C254.815 125.356 255.562 124.033 256.863 123.052C258.165 122.071 259.829 121.58 261.855 121.58C264.01 121.58 265.706 122.124 266.943 123.212C268.202 124.279 268.831 125.729 268.831 127.564V139.5H264.959V136.428H264.319L264.959 135.564C264.959 136.865 264.479 137.9 263.519 138.668C262.559 139.436 261.279 139.82 259.679 139.82ZM260.991 136.812C262.122 136.812 263.039 136.524 263.743 135.948C264.469 135.372 264.831 134.625 264.831 133.708V131.564H260.511C259.701 131.564 259.05 131.799 258.559 132.268C258.069 132.737 257.823 133.356 257.823 134.124C257.823 134.956 258.101 135.617 258.655 136.108C259.231 136.577 260.01 136.812 260.991 136.812ZM272.051 139.5V135.852H278.195V125.516H272.851V121.9H282.035V135.852H287.475V139.5H272.051ZM279.795 118.956C278.984 118.956 278.344 118.753 277.875 118.348C277.405 117.921 277.171 117.356 277.171 116.652C277.171 115.948 277.405 115.393 277.875 114.988C278.344 114.561 278.984 114.348 279.795 114.348C280.605 114.348 281.245 114.561 281.715 114.988C282.184 115.393 282.419 115.948 282.419 116.652C282.419 117.356 282.184 117.921 281.715 118.348C281.245 118.753 280.605 118.956 279.795 118.956ZM299.494 139.5C298.342 139.5 297.329 139.265 296.454 138.796C295.601 138.327 294.929 137.665 294.438 136.812C293.948 135.937 293.702 134.935 293.702 133.804V119.756H288.07V116.14H297.702V133.804C297.702 134.444 297.884 134.956 298.246 135.34C298.63 135.703 299.142 135.884 299.782 135.884H305.094V139.5H299.494ZM312.442 139.82C310.628 139.82 309.199 139.34 308.154 138.38C307.108 137.42 306.586 136.129 306.586 134.508C306.586 132.78 307.162 131.447 308.314 130.508C309.466 129.569 311.098 129.1 313.21 129.1H317.594V127.596C317.594 126.743 317.316 126.081 316.762 125.612C316.207 125.121 315.45 124.876 314.49 124.876C313.615 124.876 312.89 125.068 312.314 125.452C311.738 125.836 311.396 126.359 311.29 127.02H307.386C307.578 125.356 308.324 124.033 309.626 123.052C310.927 122.071 312.591 121.58 314.618 121.58C316.772 121.58 318.468 122.124 319.706 123.212C320.964 124.279 321.594 125.729 321.594 127.564V139.5H317.722V136.428H317.082L317.722 135.564C317.722 136.865 317.242 137.9 316.282 138.668C315.322 139.436 314.042 139.82 312.442 139.82ZM313.754 136.812C314.884 136.812 315.802 136.524 316.506 135.948C317.231 135.372 317.594 134.625 317.594 133.708V131.564H313.274C312.463 131.564 311.812 131.799 311.322 132.268C310.831 132.737 310.586 133.356 310.586 134.124C310.586 134.956 310.863 135.617 311.418 136.108C311.994 136.577 312.772 136.812 313.754 136.812ZM333.485 139.82C332.035 139.82 330.883 139.415 330.029 138.604C329.176 137.772 328.749 136.641 328.749 135.212L329.645 136.14H328.749V139.5H324.845V116.14H328.845V121.068L328.717 125.26H329.645L328.749 126.188C328.749 124.759 329.176 123.639 330.029 122.828C330.883 121.996 332.035 121.58 333.485 121.58C335.256 121.58 336.675 122.188 337.741 123.404C338.808 124.62 339.341 126.263 339.341 128.332V133.1C339.341 135.148 338.808 136.78 337.741 137.996C336.675 139.212 335.256 139.82 333.485 139.82ZM332.077 136.364C333.101 136.364 333.901 136.065 334.477 135.468C335.053 134.871 335.341 134.017 335.341 132.908V128.492C335.341 127.383 335.053 126.529 334.477 125.932C333.901 125.335 333.101 125.036 332.077 125.036C331.075 125.036 330.285 125.345 329.709 125.964C329.133 126.561 328.845 127.404 328.845 128.492V132.908C328.845 133.996 329.133 134.849 329.709 135.468C330.285 136.065 331.075 136.364 332.077 136.364ZM352.257 139.5C351.105 139.5 350.091 139.265 349.217 138.796C348.363 138.327 347.691 137.665 347.201 136.812C346.71 135.937 346.465 134.935 346.465 133.804V119.756H340.833V116.14H350.465V133.804C350.465 134.444 350.646 134.956 351.009 135.34C351.393 135.703 351.905 135.884 352.545 135.884H357.857V139.5H352.257ZM367.188 139.82C365.695 139.82 364.394 139.532 363.284 138.956C362.175 138.38 361.311 137.58 360.692 136.556C360.095 135.511 359.796 134.295 359.796 132.908V128.492C359.796 127.105 360.095 125.9 360.692 124.876C361.311 123.831 362.175 123.02 363.284 122.444C364.394 121.868 365.695 121.58 367.188 121.58C368.66 121.58 369.94 121.868 371.028 122.444C372.138 123.02 372.991 123.831 373.588 124.876C374.207 125.9 374.516 127.105 374.516 128.492V131.66H363.668V132.908C363.668 134.145 363.967 135.084 364.564 135.724C365.162 136.343 366.047 136.652 367.22 136.652C368.116 136.652 368.842 136.503 369.396 136.204C369.951 135.884 370.303 135.425 370.452 134.828H374.388C374.09 136.343 373.279 137.559 371.956 138.476C370.655 139.372 369.066 139.82 367.188 139.82ZM370.644 129.42V128.46C370.644 127.244 370.356 126.316 369.78 125.676C369.204 125.015 368.34 124.684 367.188 124.684C366.036 124.684 365.162 125.015 364.564 125.676C363.967 126.337 363.668 127.276 363.668 128.492V129.164L370.932 129.1L370.644 129.42Z" fill="#A33634"/>
<rect x="2" y="2" width="588" height="209" rx="14" stroke="#454C48" stroke-width="4" stroke-dasharray="8 8"/>
<path d="M89.7883 93.4849L84.5408 86.4206L86.1078 85.2567L87.1096 86.6053L87.5463 86.2809L87.3863 86.9778C86.9537 86.3955 86.7836 85.8176 86.8758 85.2442C86.9766 84.6644 87.3225 84.155 87.9133 83.7162C88.6069 83.201 89.3309 83.0219 90.0854 83.179C90.8484 83.3297 91.5194 83.7947 92.0982 84.5739L95.5424 89.2106L93.9369 90.4032L90.6167 85.9335C90.2987 85.5053 89.9425 85.2583 89.5481 85.1925C89.1537 85.1267 88.7553 85.2433 88.3529 85.5422C87.959 85.8348 87.7355 86.1868 87.6824 86.5983C87.6379 87.0035 87.781 87.4287 88.1117 87.8739L91.3938 92.2923L89.7883 93.4849ZM99.7976 86.2291C99.1982 86.6744 98.5932 86.951 97.9826 87.0592C97.3742 87.1524 96.7931 87.0857 96.2395 86.8591C95.6881 86.6177 95.2025 86.2143 94.7827 85.6492L93.4851 83.9024C93.0653 83.3373 92.8226 82.7601 92.7571 82.171C92.6937 81.567 92.7977 80.9915 93.069 80.4444C93.3426 79.8825 93.779 79.3789 94.3784 78.9337C94.9864 78.4821 95.5946 78.2097 96.203 78.1165C96.8051 78.0147 97.3818 78.0846 97.9332 78.326C98.4869 78.5526 98.9704 78.9442 99.3838 79.5007L100.691 81.2604C101.111 81.8255 101.352 82.4101 101.416 83.0141C101.481 83.6033 101.382 84.1756 101.117 84.7312C100.845 85.2782 100.406 85.7775 99.7976 86.2291ZM98.7577 84.8291C99.1858 84.5111 99.4296 84.1506 99.4891 83.7477C99.5507 83.3298 99.4162 82.8983 99.0854 82.453L97.7879 80.7062C97.4508 80.2524 97.0765 79.9989 96.665 79.9458C96.262 79.8864 95.8465 80.0156 95.4184 80.3337C94.9988 80.6453 94.755 81.0058 94.687 81.4151C94.6189 81.8244 94.7535 82.256 95.0906 82.7098L96.3882 84.4566C96.7189 84.9019 97.0932 85.1553 97.5111 85.217C97.9226 85.2701 98.3381 85.1408 98.7577 84.8291ZM107.542 80.2973C106.865 80.7998 106.194 81.0058 105.529 80.9152C104.873 80.8183 104.299 80.4402 103.81 79.7809L101.214 76.2873L99.3007 77.7089L98.2226 76.2575L100.136 74.8359L98.6575 72.8451L100.276 71.6429L101.755 73.6338L104.465 71.6206L105.543 73.072L102.833 75.0851L105.428 78.5787C105.759 79.024 106.142 79.0844 106.579 78.7601L108.506 77.3289L109.584 78.7803L107.542 80.2973ZM110.966 77.7536L104.001 68.3774L105.607 67.1848L107.324 69.4967L108.287 70.874L108.724 70.5496L108.564 71.2465C108.131 70.6642 107.961 70.0863 108.054 69.5129C108.154 68.9331 108.5 68.4237 109.091 67.9849C109.785 67.4697 110.509 67.2906 111.263 67.4477C112.026 67.5984 112.697 68.0634 113.276 68.8426L116.72 73.4793L115.115 74.6719L111.794 70.2022C111.476 69.774 111.12 69.527 110.726 69.4612C110.331 69.3954 109.933 69.512 109.531 69.8109C109.137 70.1035 108.913 70.4555 108.86 70.867C108.816 71.2722 108.959 71.6974 109.289 72.1426L112.572 76.561L110.966 77.7536ZM118.012 72.5194L116.925 71.0552L119.391 69.2233L116.309 65.0747L114.164 66.668L113.086 65.2166L116.772 62.4784L120.932 68.0784L123.116 66.4564L124.203 67.9207L118.012 72.5194ZM114.995 61.9646C114.67 62.2063 114.353 62.3157 114.044 62.293C113.728 62.2617 113.465 62.1047 113.255 61.8221C113.045 61.5396 112.974 61.247 113.042 60.9444C113.103 60.6332 113.296 60.3567 113.622 60.115C113.947 59.8733 114.267 59.7681 114.583 59.7994C114.892 59.8222 115.152 59.9749 115.362 60.2574C115.572 60.54 115.646 60.8369 115.585 61.1481C115.517 61.4507 115.321 61.7229 114.995 61.9646ZM125.085 67.2661L119.837 60.2018L121.404 59.0378L122.406 60.3865L122.842 60.0621L122.682 60.7589C122.25 60.1767 122.08 59.5988 122.172 59.0254C122.273 58.4456 122.619 57.9362 123.21 57.4973C123.903 56.9821 124.627 56.8031 125.382 56.9601C126.145 57.1109 126.816 57.5758 127.394 58.355L130.839 62.9918L129.233 64.1844L125.913 59.7146C125.595 59.2865 125.239 59.0395 124.844 58.9737C124.45 58.9079 124.052 59.0244 123.649 59.3234C123.255 59.616 123.032 59.968 122.979 60.3795C122.934 60.7846 123.077 61.2098 123.408 61.6551L126.69 66.0735L125.085 67.2661ZM134.824 63.6187L133.832 62.2829L135.926 60.7277C136.285 60.4606 136.488 60.1703 136.535 59.8569C136.587 59.5521 136.493 59.237 136.251 58.9116L135.86 58.385L134.903 57.043L134.556 57.3006L134.645 56.6962C135.071 57.2699 135.234 57.8466 135.133 58.4265C135.035 58.9913 134.698 59.4869 134.125 59.913C133.405 60.4473 132.65 60.6294 131.86 60.4594C131.078 60.283 130.378 59.7795 129.761 58.9489L128.74 57.5746C128.13 56.7526 127.853 55.9417 127.91 55.1419C127.975 54.3358 128.368 53.6656 129.087 53.1313C129.661 52.7052 130.235 52.5307 130.811 52.6081C131.389 52.6705 131.891 52.9885 132.317 53.5622L131.713 53.473L132.06 53.2154L131.019 51.8954L132.625 50.7028L137.872 57.7671C138.4 58.4778 138.581 59.2136 138.416 59.9744C138.256 60.7438 137.766 61.4338 136.944 62.0444L134.824 63.6187ZM133.634 58.1251C134.045 57.8198 134.273 57.4646 134.317 57.0595C134.364 56.6394 134.225 56.211 133.901 55.7743L132.985 54.5413C132.66 54.1046 132.293 53.8522 131.884 53.7842C131.477 53.7013 131.068 53.8125 130.657 54.1178C130.246 54.4231 130.018 54.7783 129.974 55.1834C129.929 55.5886 130.072 56.0138 130.403 56.459L131.319 57.6921C131.65 58.1373 132.015 58.3971 132.416 58.4715C132.817 58.5459 133.223 58.4304 133.634 58.1251Z" fill="#454C48"/>
<path d="M411.045 176.947C410.212 177.304 409.461 177.365 408.791 177.13C408.122 176.895 407.627 176.405 407.308 175.66C406.967 174.866 406.969 174.139 407.314 173.481C407.658 172.823 408.316 172.286 409.286 171.869L411.301 171.006L411.005 170.315C410.837 169.922 410.579 169.673 410.232 169.567C409.88 169.451 409.484 169.487 409.042 169.676C408.641 169.848 408.345 170.08 408.156 170.37C407.967 170.659 407.913 170.967 407.994 171.292L406.2 172.061C405.961 171.258 406.043 170.504 406.448 169.796C406.853 169.089 407.521 168.536 408.452 168.136C409.442 167.712 410.329 167.628 411.112 167.884C411.9 168.126 412.475 168.669 412.837 169.512L415.188 174.997L413.409 175.76L412.804 174.348L412.509 174.474L412.633 173.951C412.89 174.549 412.873 175.119 412.583 175.661C412.293 176.203 411.781 176.632 411.045 176.947ZM411.056 175.306C411.575 175.084 411.94 174.771 412.15 174.367C412.37 173.96 412.39 173.545 412.209 173.123L411.787 172.138L409.801 172.989C409.429 173.149 409.176 173.385 409.043 173.697C408.91 174.01 408.919 174.342 409.07 174.695C409.234 175.078 409.492 175.327 409.844 175.443C410.201 175.545 410.605 175.5 411.056 175.306ZM421.197 172.421C420.668 172.648 420.156 172.74 419.661 172.697C419.177 172.649 418.738 172.477 418.344 172.182C417.946 171.877 417.636 171.464 417.413 170.945L414.646 164.489L412.057 165.598L411.345 163.937L415.771 162.039L419.251 170.157C419.377 170.451 419.562 170.65 419.804 170.755C420.052 170.846 420.323 170.829 420.617 170.703L423.058 169.656L423.771 171.318L421.197 172.421ZM427.792 169.751C427.174 170.015 426.593 170.148 426.048 170.15C425.504 170.151 425.025 170.037 424.613 169.808C424.207 169.564 423.893 169.211 423.672 168.749L425.51 167.961C425.639 168.207 425.85 168.361 426.143 168.421C426.445 168.477 426.783 168.425 427.155 168.265L427.802 167.988C428.253 167.795 428.554 167.561 428.704 167.288C428.853 167.015 428.863 166.727 428.733 166.423C428.611 166.138 428.414 165.962 428.14 165.893C427.873 165.811 427.518 165.835 427.075 165.967L426.012 166.249C425.036 166.516 424.255 166.561 423.668 166.383C423.081 166.205 422.632 165.754 422.321 165.028C421.997 164.273 422.002 163.581 422.335 162.951C422.664 162.31 423.324 161.778 424.314 161.354L424.873 161.114C425.775 160.727 426.582 160.619 427.293 160.79C428.005 160.961 428.525 161.376 428.854 162.036L427.016 162.824C426.894 162.621 426.696 162.497 426.422 162.452C426.157 162.403 425.853 162.452 425.51 162.599L424.951 162.839C424.529 163.02 424.254 163.23 424.125 163.471C424.002 163.698 424.004 163.959 424.13 164.253C424.247 164.527 424.419 164.698 424.644 164.763C424.866 164.819 425.175 164.797 425.573 164.696L426.68 164.395C427.7 164.121 428.517 164.078 429.132 164.267C429.752 164.442 430.22 164.897 430.535 165.633C430.872 166.417 430.865 167.145 430.515 167.817C430.17 168.476 429.478 169.028 428.439 169.473L427.792 169.751ZM436.183 166.153C435.497 166.448 434.844 166.576 434.225 166.54C433.612 166.49 433.062 166.29 432.576 165.941C432.096 165.579 431.717 165.074 431.439 164.427L430.582 162.427C430.304 161.78 430.202 161.162 430.275 160.574C430.353 159.972 430.588 159.436 430.979 158.967C431.375 158.483 431.916 158.095 432.602 157.8C433.299 157.502 433.953 157.378 434.567 157.428C435.176 157.469 435.721 157.671 436.201 158.033C436.687 158.382 437.067 158.875 437.34 159.512L438.204 161.527C438.481 162.174 438.581 162.799 438.502 163.401C438.43 163.989 438.2 164.523 437.813 165.002C437.423 165.471 436.879 165.855 436.183 166.153ZM435.496 164.55C435.986 164.34 436.307 164.046 436.458 163.668C436.615 163.276 436.584 162.825 436.366 162.315L435.508 160.315C435.286 159.795 434.98 159.462 434.592 159.315C434.214 159.164 433.78 159.193 433.29 159.403C432.809 159.609 432.489 159.904 432.327 160.286C432.166 160.668 432.197 161.119 432.42 161.639L433.277 163.639C433.496 164.149 433.801 164.482 434.194 164.639C434.582 164.786 435.016 164.756 435.496 164.55ZM449.012 160.497L445.545 152.409L447.339 151.64L448.001 153.184L448.501 152.97L448.183 153.61C447.898 152.944 447.866 152.342 448.089 151.806C448.321 151.265 448.776 150.85 449.452 150.56C450.246 150.219 450.992 150.213 451.69 150.541C452.397 150.864 452.942 151.472 453.324 152.364L455.6 157.673L453.762 158.461L451.568 153.343C451.358 152.853 451.069 152.53 450.7 152.375C450.332 152.219 449.917 152.24 449.456 152.438C449.005 152.631 448.706 152.922 448.559 153.31C448.422 153.694 448.463 154.141 448.681 154.65L450.85 159.709L449.012 160.497ZM460.43 155.759C459.744 156.053 459.091 156.182 458.472 156.145C457.859 156.095 457.309 155.896 456.823 155.547C456.343 155.184 455.964 154.679 455.686 154.032L454.829 152.032C454.552 151.385 454.449 150.768 454.522 150.179C454.6 149.577 454.835 149.041 455.226 148.572C455.622 148.089 456.163 147.7 456.85 147.406C457.546 147.108 458.2 146.983 458.814 147.034C459.423 147.074 459.968 147.276 460.448 147.639C460.934 147.987 461.314 148.48 461.587 149.118L462.451 151.132C462.728 151.779 462.828 152.404 462.749 153.006C462.677 153.595 462.447 154.128 462.061 154.607C461.67 155.077 461.126 155.46 460.43 155.759ZM459.743 154.156C460.233 153.946 460.554 153.652 460.705 153.273C460.862 152.881 460.831 152.43 460.613 151.92L459.755 149.92C459.533 149.401 459.227 149.067 458.839 148.92C458.461 148.769 458.027 148.799 457.537 149.009C457.056 149.215 456.736 149.509 456.575 149.891C456.414 150.274 456.444 150.725 456.667 151.244L457.525 153.244C457.743 153.754 458.048 154.087 458.441 154.244C458.829 154.391 459.263 154.362 459.743 154.156ZM469.338 151.783C468.564 152.115 467.864 152.16 467.237 151.918C466.621 151.671 466.151 151.171 465.828 150.416L464.113 146.416L461.922 147.355L461.209 145.694L463.4 144.754L462.423 142.475L464.276 141.681L465.253 143.96L468.356 142.63L469.069 144.291L465.966 145.622L467.681 149.622C467.899 150.131 468.258 150.279 468.758 150.065L470.964 149.119L471.677 150.781L469.338 151.783ZM473.259 150.102L468.657 139.367L470.495 138.579L471.63 141.226L472.248 142.789L472.748 142.575L472.431 143.216C472.145 142.549 472.113 141.948 472.336 141.411C472.568 140.87 473.023 140.455 473.699 140.165C474.493 139.825 475.239 139.818 475.937 140.146C476.644 140.47 477.189 141.077 477.571 141.969L479.847 147.278L478.009 148.066L475.815 142.949C475.605 142.458 475.316 142.136 474.947 141.98C474.579 141.825 474.164 141.846 473.704 142.043C473.253 142.237 472.954 142.527 472.807 142.915C472.669 143.299 472.71 143.746 472.929 144.256L475.097 149.314L473.259 150.102ZM481.327 146.644L480.608 144.967L483.432 143.757L481.395 139.007L478.939 140.06L478.227 138.398L482.448 136.589L485.196 143.001L487.696 141.929L488.415 143.605L481.327 146.644ZM480.838 135.677C480.466 135.837 480.132 135.87 479.836 135.776C479.536 135.673 479.317 135.459 479.178 135.135C479.04 134.812 479.038 134.511 479.174 134.232C479.306 133.943 479.558 133.719 479.93 133.56C480.303 133.4 480.639 133.372 480.939 133.476C481.234 133.569 481.451 133.778 481.59 134.102C481.729 134.425 481.732 134.731 481.601 135.02C481.465 135.298 481.211 135.518 480.838 135.677ZM489.424 143.173L485.956 135.085L487.751 134.316L488.412 135.86L488.912 135.645L488.595 136.286C488.31 135.619 488.278 135.018 488.501 134.481C488.733 133.941 489.187 133.525 489.864 133.235C490.658 132.895 491.404 132.889 492.101 133.216C492.809 133.54 493.354 134.148 493.736 135.04L496.012 140.348L494.174 141.137L491.98 136.019C491.77 135.529 491.48 135.206 491.112 135.051C490.744 134.895 490.329 134.916 489.868 135.114C489.417 135.307 489.118 135.598 488.971 135.986C488.834 136.369 488.875 136.816 489.093 137.326L491.262 142.385L489.424 143.173ZM499.744 141.882L499.088 140.353L501.485 139.325C501.897 139.149 502.162 138.913 502.279 138.619C502.401 138.335 502.382 138.006 502.222 137.634L501.964 137.031L501.344 135.504L500.947 135.674L501.174 135.107C501.455 135.763 501.48 136.362 501.248 136.903C501.021 137.429 500.579 137.834 499.922 138.115C499.098 138.468 498.322 138.47 497.592 138.122C496.872 137.769 496.308 137.117 495.901 136.166L495.226 134.592C494.823 133.651 494.741 132.798 494.982 132.034C495.233 131.265 495.77 130.704 496.593 130.351C497.25 130.069 497.85 130.033 498.392 130.241C498.939 130.436 499.354 130.862 499.636 131.518L499.068 131.292L499.465 131.121L498.759 129.596L500.598 128.808L504.065 136.896C504.414 137.71 504.419 138.468 504.082 139.169C503.749 139.881 503.111 140.438 502.17 140.842L499.744 141.882ZM499.859 136.262C500.329 136.06 500.633 135.768 500.771 135.384C500.913 134.986 500.878 134.537 500.663 134.037L500.058 132.626C499.844 132.126 499.545 131.795 499.163 131.634C498.786 131.459 498.362 131.472 497.892 131.674C497.421 131.876 497.117 132.169 496.98 132.552C496.843 132.936 496.884 133.383 497.102 133.893L497.707 135.304C497.926 135.814 498.221 136.152 498.594 136.317C498.967 136.482 499.388 136.464 499.859 136.262Z" fill="#454C48"/>
<path d="M454.877 57.1994L461.753 51.7075L462.971 53.2327L461.658 54.2812L461.998 54.7062L461.296 54.5707C461.862 54.1181 462.434 53.9278 463.01 53.9999C463.593 54.0803 464.114 54.408 464.574 54.9831C465.113 55.6582 465.317 56.3755 465.187 57.1351C465.063 57.9029 464.622 58.5897 463.863 59.1955L459.35 62.8002L458.102 61.2375L462.452 57.7626C462.869 57.4298 463.103 57.0651 463.155 56.6687C463.207 56.2723 463.077 55.8782 462.764 55.4865C462.458 55.1031 462.098 54.892 461.685 54.8534C461.279 54.8231 460.859 54.981 460.425 55.3272L456.125 58.7621L454.877 57.1994ZM462.479 66.9483C462.013 66.3648 461.715 65.7699 461.586 65.1634C461.471 64.5586 461.517 63.9756 461.724 63.4144C461.946 62.8548 462.332 62.3554 462.883 61.916L464.583 60.558C465.133 60.1187 465.701 59.8559 466.288 59.7698C466.889 59.6853 467.468 59.769 468.024 60.021C468.595 60.2747 469.114 60.6932 469.58 61.2766C470.052 61.8684 470.346 62.4667 470.46 63.0715C470.583 63.6696 470.534 64.2484 470.312 64.808C470.105 65.3692 469.73 65.8662 469.188 66.2989L467.476 67.6669C466.926 68.1062 466.35 68.3681 465.748 68.4526C465.162 68.5388 464.587 68.4592 464.022 68.2139C463.466 67.9619 462.951 67.54 462.479 66.9483ZM463.841 65.8599C464.174 66.2766 464.543 66.5076 464.948 66.5529C465.368 66.5999 465.794 66.4503 466.228 66.1041L467.928 64.7461C468.37 64.3933 468.61 64.0104 468.648 63.5973C468.694 63.1925 468.55 62.7818 468.217 62.365C467.891 61.9566 467.522 61.7256 467.111 61.672C466.699 61.6184 466.273 61.7679 465.831 62.1208L464.131 63.4788C463.697 63.8249 463.457 64.2079 463.41 64.6276C463.371 65.0407 463.515 65.4515 463.841 65.8599ZM468.678 74.4796C468.152 73.8212 467.923 73.158 467.99 72.49C468.064 71.8304 468.422 71.2443 469.064 70.7317L472.464 68.0158L470.976 66.153L472.389 65.0247L473.877 66.8874L475.815 65.3397L477.073 66.9149L475.135 68.4626L477.242 71.1005L475.829 72.2289L473.722 69.591L470.322 72.307C469.888 72.6531 469.841 73.0387 470.181 73.4638L471.679 75.3391L470.266 76.4674L468.678 74.4796ZM471.34 77.8127L480.467 70.5235L481.715 72.0862L479.465 73.8835L478.122 74.8945L478.461 75.3196L477.759 75.1841C478.326 74.7314 478.898 74.5411 479.474 74.6132C480.057 74.6936 480.578 75.0214 481.038 75.5965C481.577 76.2716 481.781 76.9889 481.651 77.7484C481.527 78.5163 481.085 79.2031 480.327 79.8088L475.814 83.4135L474.566 81.8508L478.916 78.3759C479.333 78.0431 479.567 77.6784 479.619 77.282C479.671 76.8856 479.541 76.4915 479.228 76.0998C478.922 75.7164 478.562 75.5054 478.149 75.4667C477.743 75.4364 477.323 75.5944 476.889 75.9405L472.589 79.3754L471.34 77.8127ZM476.818 84.6713L478.244 83.533L480.161 85.9333L484.199 82.7081L482.531 80.6203L483.944 79.492L486.81 83.08L481.359 87.4336L483.057 89.5589L481.631 90.6972L476.818 84.6713ZM487.261 81.2862C487.008 80.9695 486.888 80.6562 486.899 80.3464C486.92 80.0299 487.067 79.7618 487.342 79.5421C487.617 79.3225 487.907 79.2411 488.212 79.2979C488.525 79.3482 488.808 79.5316 489.061 79.8484C489.314 80.1651 489.431 80.4817 489.41 80.7982C489.399 81.108 489.255 81.3728 488.98 81.5924C488.705 81.8121 488.411 81.8968 488.098 81.8466C487.793 81.7897 487.514 81.6029 487.261 81.2862ZM482.316 91.5549L489.192 86.063L490.411 87.5883L489.098 88.6367L489.437 89.0618L488.735 88.9263C489.302 88.4736 489.874 88.2833 490.45 88.3554C491.033 88.4358 491.554 88.7636 492.013 89.3387C492.553 90.0138 492.757 90.7311 492.626 91.4906C492.503 92.2585 492.061 92.9453 491.303 93.5511L486.79 97.1557L485.542 95.593L489.892 92.1181C490.309 91.7853 490.543 91.4207 490.595 91.0242C490.647 90.6278 490.517 90.2337 490.204 89.842C489.898 89.4586 489.538 89.2476 489.125 89.209C488.719 89.1786 488.299 89.3366 487.865 89.6827L483.565 93.1176L482.316 91.5549ZM486.303 101.161L487.603 100.123L489.231 102.16C489.51 102.51 489.808 102.703 490.122 102.738C490.429 102.78 490.74 102.675 491.057 102.422L491.57 102.012L492.877 101.009L492.608 100.671L493.215 100.739C492.657 101.185 492.086 101.368 491.503 101.288C490.935 101.209 490.428 100.89 489.982 100.332C489.423 99.6317 489.214 98.8836 489.356 98.0874C489.505 97.2996 489.984 96.5828 490.792 95.9371L492.13 94.8687C492.93 94.2296 493.731 93.9246 494.532 93.9535C495.34 93.9908 496.024 94.3595 496.583 95.0596C497.029 95.618 497.223 96.1862 497.166 96.7642C497.124 97.3439 496.824 97.8568 496.265 98.3028L496.333 97.6956L496.603 98.0332L497.886 96.9472L499.134 98.51L492.258 104.002C491.566 104.554 490.837 104.761 490.071 104.622C489.296 104.49 488.59 104.024 487.951 103.224L486.303 101.161ZM491.751 99.7785C492.071 100.179 492.434 100.394 492.84 100.424C493.262 100.456 493.685 100.302 494.11 99.9628L495.31 99.0042C495.735 98.6647 495.975 98.2892 496.028 97.8778C496.097 97.4681 495.972 97.0632 495.652 96.6631C495.332 96.263 494.969 96.0479 494.563 96.0176C494.157 95.9872 493.737 96.1452 493.303 96.4913L492.103 97.4499C491.67 97.7961 491.423 98.1707 491.363 98.5738C491.302 98.9769 491.432 99.3784 491.751 99.7785Z" fill="#454C48"/>
<path d="M129.468 132.51L137.617 129.189L138.354 130.996L136.798 131.63L137.003 132.134L136.368 131.806C137.04 131.532 137.642 131.511 138.174 131.743C138.711 131.985 139.118 132.447 139.396 133.129C139.722 133.929 139.715 134.675 139.375 135.366C139.038 136.068 138.421 136.602 137.522 136.968L132.173 139.148L131.418 137.296L136.575 135.194C137.068 134.993 137.396 134.71 137.558 134.344C137.72 133.979 137.707 133.564 137.518 133.099C137.332 132.645 137.047 132.341 136.662 132.187C136.281 132.043 135.833 132.075 135.32 132.285L130.223 134.362L129.468 132.51ZM134 144.012C133.718 143.32 133.601 142.665 133.648 142.047C133.71 141.435 133.919 140.889 134.277 140.409C134.648 139.935 135.16 139.565 135.811 139.3L137.827 138.478C138.478 138.213 139.098 138.122 139.685 138.205C140.285 138.294 140.817 138.538 141.279 138.937C141.755 139.342 142.134 139.891 142.416 140.582C142.702 141.283 142.814 141.94 142.752 142.553C142.701 143.161 142.49 143.702 142.118 144.176C141.761 144.656 141.261 145.026 140.619 145.288L138.589 146.115C137.937 146.381 137.311 146.469 136.71 146.38C136.123 146.297 135.594 146.058 135.122 145.662C134.66 145.263 134.286 144.713 134 144.012ZM135.615 143.354C135.816 143.847 136.105 144.173 136.48 144.331C136.869 144.495 137.321 144.473 137.834 144.263L139.849 143.442C140.373 143.229 140.712 142.929 140.866 142.544C141.024 142.169 141.002 141.734 140.801 141.24C140.604 140.756 140.315 140.43 139.936 140.262C139.556 140.094 139.105 140.117 138.581 140.331L136.566 141.152C136.053 141.361 135.714 141.66 135.55 142.05C135.396 142.435 135.418 142.87 135.615 143.354ZM137.814 152.99C137.496 152.21 137.464 151.509 137.717 150.887C137.975 150.275 138.484 149.814 139.245 149.504L143.275 147.862L142.375 145.654L144.049 144.972L144.949 147.18L147.246 146.244L148.007 148.111L145.71 149.046L146.984 152.173L145.31 152.855L144.036 149.729L140.005 151.371C139.492 151.581 139.338 151.937 139.543 152.441L140.449 154.663L138.774 155.346L137.814 152.99ZM139.424 156.94L150.24 152.532L150.995 154.384L148.328 155.471L146.754 156.061L146.96 156.565L146.325 156.236C146.996 155.962 147.598 155.941 148.131 156.174C148.667 156.416 149.074 156.878 149.352 157.559C149.678 158.359 149.671 159.105 149.331 159.797C148.995 160.498 148.377 161.032 147.478 161.398L142.129 163.578L141.375 161.726L146.531 159.625C147.025 159.423 147.353 159.14 147.515 158.774C147.677 158.409 147.663 157.994 147.474 157.53C147.289 157.075 147.004 156.771 146.618 156.617C146.237 156.473 145.79 156.506 145.276 156.715L140.179 158.792L139.424 156.94ZM142.737 165.069L144.426 164.38L145.585 167.225L150.371 165.275L149.363 162.8L151.037 162.118L152.77 166.371L146.31 169.003L147.337 171.522L145.647 172.211L142.737 165.069ZM153.711 164.778C153.558 164.402 153.531 164.068 153.63 163.774C153.739 163.476 153.956 163.261 154.282 163.128C154.608 162.995 154.909 162.999 155.186 163.14C155.472 163.277 155.691 163.533 155.844 163.908C155.997 164.284 156.019 164.62 155.91 164.918C155.811 165.212 155.599 165.425 155.273 165.558C154.947 165.691 154.641 165.689 154.354 165.552C154.078 165.411 153.864 165.153 153.711 164.778ZM146.062 173.227L154.211 169.906L154.948 171.714L153.392 172.348L153.597 172.851L152.962 172.523C153.634 172.249 154.236 172.228 154.768 172.461C155.305 172.703 155.712 173.165 155.989 173.846C156.316 174.646 156.309 175.392 155.968 176.084C155.632 176.785 155.015 177.319 154.116 177.685L148.767 179.865L148.012 178.013L153.168 175.912C153.662 175.71 153.99 175.427 154.152 175.061C154.314 174.696 154.301 174.281 154.112 173.817C153.926 173.362 153.641 173.058 153.256 172.904C152.875 172.76 152.427 172.793 151.913 173.002L146.817 175.079L146.062 173.227ZM147.166 183.569L148.707 182.941L149.692 185.356C149.861 185.771 150.091 186.04 150.383 186.163C150.665 186.289 150.994 186.276 151.369 186.123L151.977 185.876L153.515 185.284L153.352 184.884L153.915 185.121C153.253 185.39 152.654 185.404 152.118 185.162C151.595 184.926 151.199 184.477 150.929 183.815C150.591 182.985 150.603 182.208 150.965 181.485C151.331 180.772 151.993 180.22 152.951 179.829L154.536 179.183C155.484 178.797 156.339 178.731 157.099 178.985C157.863 179.25 158.415 179.797 158.753 180.626C159.022 181.288 159.048 181.888 158.83 182.426C158.625 182.971 158.192 183.377 157.53 183.647L157.767 183.084L157.93 183.484L159.468 182.806L160.223 184.658L152.074 187.979C151.254 188.313 150.496 188.305 149.8 187.955C149.095 187.609 148.549 186.962 148.163 186.014L147.166 183.569ZM152.783 183.785C152.977 184.259 153.264 184.568 153.645 184.712C154.04 184.862 154.49 184.835 154.993 184.629L156.416 184.05C156.92 183.844 157.255 183.552 157.423 183.172C157.605 182.799 157.599 182.375 157.406 181.901C157.213 181.427 156.926 181.118 156.544 180.974C156.163 180.829 155.716 180.862 155.202 181.071L153.78 181.651C153.266 181.86 152.923 182.15 152.751 182.519C152.579 182.889 152.59 183.311 152.783 183.785Z" fill="#454C48"/>
<path d="M279.518 178.698L277.511 170.13L279.412 169.685L279.795 171.321L280.325 171.196L279.901 171.772C279.735 171.066 279.809 170.468 280.121 169.979C280.444 169.487 280.964 169.157 281.681 168.989C282.522 168.792 283.258 168.915 283.887 169.359C284.528 169.801 284.959 170.494 285.18 171.439L286.497 177.063L284.55 177.519L283.28 172.098C283.158 171.579 282.93 171.211 282.594 170.993C282.258 170.776 281.846 170.725 281.358 170.839C280.881 170.951 280.536 171.185 280.323 171.542C280.121 171.896 280.084 172.343 280.21 172.883L281.465 178.242L279.518 178.698ZM291.587 176.019C290.86 176.189 290.195 176.203 289.592 176.059C288.996 175.903 288.49 175.611 288.072 175.183C287.662 174.742 287.376 174.179 287.216 173.493L286.719 171.375C286.559 170.689 286.566 170.063 286.74 169.497C286.922 168.917 287.246 168.43 287.712 168.036C288.187 167.629 288.787 167.341 289.514 167.17C290.252 166.998 290.918 166.99 291.513 167.146C292.106 167.292 292.608 167.585 293.018 168.026C293.436 168.454 293.724 169.005 293.882 169.68L294.382 171.815C294.542 172.5 294.532 173.133 294.35 173.712C294.176 174.279 293.857 174.764 293.393 175.169C292.926 175.563 292.324 175.846 291.587 176.019ZM291.189 174.321C291.708 174.199 292.075 173.965 292.29 173.619C292.513 173.26 292.561 172.811 292.434 172.271L291.938 170.152C291.809 169.602 291.567 169.22 291.21 169.008C290.864 168.793 290.431 168.747 289.912 168.868C289.403 168.988 289.036 169.222 288.811 169.57C288.586 169.919 288.538 170.368 288.667 170.919L289.163 173.037C289.29 173.577 289.532 173.959 289.891 174.181C290.248 174.394 290.68 174.44 291.189 174.321ZM297.299 177.491L294.635 166.119L296.536 165.674L296.919 167.309L297.355 167.207L297.025 167.761C296.862 167.065 296.942 166.471 297.265 165.979C297.585 165.477 298.099 165.143 298.805 164.978C299.667 164.776 300.427 164.91 301.085 165.38C301.743 165.851 302.188 166.584 302.422 167.581L302.966 169.903C303.121 170.567 303.138 171.177 303.016 171.731C302.902 172.273 302.664 172.729 302.301 173.098C301.938 173.468 301.466 173.721 300.885 173.857C300.179 174.023 299.572 173.957 299.064 173.66C298.553 173.352 298.217 172.85 298.054 172.154L298.596 172.504L298.144 172.61L298.684 174.636L299.246 177.035L297.299 177.491ZM299.805 172.336C300.304 172.219 300.659 171.982 300.871 171.626C301.084 171.269 301.127 170.821 301 170.281L300.497 168.131C300.37 167.591 300.133 167.208 299.784 166.983C299.435 166.758 299.012 166.704 298.513 166.821C298.025 166.935 297.676 167.176 297.466 167.543C297.254 167.899 297.21 168.342 297.334 168.872L297.838 171.022C297.962 171.551 298.199 171.934 298.55 172.169C298.899 172.394 299.317 172.45 299.805 172.336ZM308.73 172.02C308.003 172.19 307.337 172.198 306.731 172.044C306.125 171.89 305.614 171.599 305.196 171.171C304.786 170.731 304.501 170.173 304.343 169.498L303.84 167.348C303.682 166.673 303.69 166.052 303.864 165.485C304.046 164.906 304.374 164.413 304.848 164.006C305.323 163.599 305.923 163.31 306.65 163.14C307.367 162.972 308.023 162.966 308.618 163.123C309.224 163.277 309.732 163.574 310.142 164.015C310.56 164.443 310.848 164.994 311.006 165.669L311.367 167.212L306.086 168.449L306.228 169.056C306.369 169.659 306.622 170.081 306.986 170.325C307.347 170.558 307.813 170.608 308.384 170.474C308.821 170.372 309.157 170.216 309.393 170.008C309.626 169.789 309.745 169.525 309.75 169.217L311.666 168.768C311.693 169.54 311.437 170.224 310.898 170.822C310.367 171.406 309.644 171.806 308.73 172.02ZM309.227 166.563L309.117 166.095C308.979 165.503 308.732 165.084 308.379 164.839C308.023 164.582 307.565 164.52 307.004 164.651C306.443 164.783 306.055 165.043 305.84 165.433C305.624 165.823 305.586 166.314 305.725 166.906L305.801 167.234L309.33 166.374L309.227 166.563Z" fill="#454C48"/>
<path d="M180.822 61.5607L178.405 53.0991L180.282 52.563L180.744 54.1784L181.267 54.029L180.871 54.6245C180.672 53.9271 180.717 53.3264 181.005 52.8224C181.304 52.3154 181.808 51.9609 182.515 51.7588C183.346 51.5215 184.087 51.6094 184.737 52.0226C185.398 52.4329 185.862 53.1047 186.128 54.0381L187.715 59.592L185.792 60.1413L184.262 54.7874C184.116 54.2746 183.87 53.9178 183.524 53.717C183.178 53.5163 182.764 53.4848 182.282 53.6224C181.811 53.7572 181.477 54.0077 181.282 54.374C181.098 54.7374 181.081 55.1857 181.234 55.719L182.746 61.0114L180.822 61.5607ZM192.753 58.3193C191.676 58.6269 190.745 58.5712 189.959 58.1521C189.171 57.7227 188.629 56.9901 188.333 55.9542L186.83 50.6926L188.753 50.1433L190.252 55.3895C190.407 55.9331 190.661 56.3155 191.012 56.5368C191.361 56.7478 191.781 56.783 192.274 56.6424C192.756 56.5047 193.089 56.2542 193.274 55.8908C193.466 55.5143 193.484 55.0542 193.329 54.5106L191.83 49.2644L193.753 48.7151L195.256 53.9767C195.552 55.0126 195.474 55.9225 195.021 56.7063C194.565 57.4799 193.809 58.0175 192.753 58.3193ZM202.457 55.3811C201.903 55.5393 201.383 55.5656 200.898 55.4601C200.424 55.3516 200.01 55.126 199.657 54.7831C199.301 54.4299 199.045 53.9816 198.89 53.438L196.961 46.6841L194.253 47.4575L193.756 45.7191L198.387 44.3963L200.813 52.8887C200.901 53.1964 201.058 53.4176 201.285 53.5524C201.52 53.6741 201.791 53.6909 202.099 53.603L204.652 52.8736L205.149 54.612L202.457 55.3811ZM210.912 52.9658C210.358 53.124 209.839 53.1503 209.354 53.0448C208.879 52.9364 208.465 52.7107 208.112 52.3678C207.756 52.0147 207.501 51.5663 207.345 51.0227L205.416 44.2689L202.709 45.0423L202.212 43.3038L206.843 41.9811L209.268 50.4734C209.356 50.7811 209.514 51.0024 209.741 51.1372C209.975 51.2588 210.246 51.2757 210.554 51.1878L213.108 50.4583L213.605 52.1968L210.912 52.9658Z" fill="#454C48"/>
<path d="M278.202 34.9894C277.183 34.5263 276.509 33.8808 276.182 33.0529C275.86 32.2152 275.921 31.306 276.367 30.325L278.629 25.3426L280.45 26.1695L278.194 31.1373C277.961 31.6521 277.906 32.1076 278.031 32.504C278.16 32.8906 278.457 33.1897 278.923 33.4014C279.38 33.6087 279.796 33.6337 280.172 33.4764C280.562 33.3138 280.874 32.9751 281.108 32.4604L283.364 27.4926L285.185 28.3195L282.922 33.3019C282.477 34.2828 281.828 34.9253 280.975 35.2293C280.127 35.5236 279.203 35.4436 278.202 34.9894ZM283.027 37.0043L286.665 28.9916L288.442 29.7987L287.748 31.3284L288.243 31.5533L287.556 31.7508C287.856 31.0904 288.279 30.6617 288.825 30.4646C289.381 30.2719 289.995 30.3277 290.665 30.632C291.451 30.9893 291.959 31.5359 292.187 32.2721C292.425 33.0126 292.343 33.8248 291.941 34.7087L289.553 39.9679L287.732 39.141L290.034 34.0711C290.255 33.5855 290.298 33.1543 290.165 32.7774C290.032 32.4005 289.737 32.1084 289.28 31.9011C288.833 31.6983 288.417 31.6733 288.031 31.8261C287.655 31.9834 287.353 32.3146 287.123 32.8196L284.848 37.8312L283.027 37.0043ZM293.532 41.95C292.735 41.5884 292.215 41.0183 291.971 40.2398C291.737 39.4657 291.831 38.6124 292.255 37.68L293.24 35.5093C293.668 34.5672 294.251 33.9297 294.988 33.5966C295.725 33.2635 296.496 33.2799 297.302 33.646C297.963 33.9459 298.401 34.3734 298.618 34.9286C298.839 35.4741 298.801 36.0722 298.506 36.7229L298.29 36.1152L298.712 36.307L299.521 34.3721L300.539 32.1285L302.36 32.9554L297.531 43.5904L295.754 42.7833L296.448 41.2537L296.041 41.0684L296.64 40.8312C296.345 41.4819 295.917 41.9085 295.356 42.1108C294.8 42.3035 294.192 42.2499 293.532 41.95ZM294.887 40.6677C295.353 40.8793 295.774 40.9066 296.15 40.7493C296.54 40.5867 296.848 40.2577 297.073 39.7624L297.986 37.752C298.211 37.2566 298.254 36.8135 298.115 36.4224C297.99 36.0261 297.695 35.7221 297.229 35.5104C296.763 35.2988 296.337 35.2693 295.951 35.4222C295.565 35.5751 295.258 35.904 295.028 36.4091L294.115 38.4195C293.886 38.9246 293.841 39.3726 293.98 39.7636C294.118 40.1546 294.421 40.456 294.887 40.6677ZM302.238 45.9033C301.558 45.5946 301.025 45.1944 300.639 44.7029C300.253 44.2113 300.025 43.6685 299.955 43.0744C299.899 42.475 300.015 41.8597 300.301 41.2284L301.214 39.218C301.501 38.5867 301.886 38.0996 302.37 37.7569C302.867 37.4089 303.428 37.2185 304.053 37.1856C304.677 37.1527 305.329 37.2906 306.008 37.5993C306.679 37.9036 307.202 38.2993 307.578 38.7864C307.964 39.278 308.185 39.8235 308.241 40.4229C308.311 41.0169 308.202 41.6296 307.916 42.2609L307.261 43.7032L302.322 41.4607L302.064 42.0288C301.808 42.5921 301.75 43.0812 301.89 43.4961C302.034 43.9012 302.373 44.2251 302.907 44.4676C303.315 44.6529 303.676 44.7348 303.991 44.7135C304.309 44.6825 304.564 44.5464 304.756 44.3054L306.548 45.119C306.099 45.7469 305.478 46.1329 304.686 46.2771C303.909 46.416 303.092 46.2914 302.238 45.9033ZM305.961 41.883L306.16 41.4459C306.411 40.8923 306.472 40.4103 306.342 39.9999C306.216 39.5797 305.891 39.2506 305.367 39.0124C304.842 38.7743 304.376 38.744 303.967 38.9216C303.558 39.0992 303.228 39.4648 302.977 40.0184L302.838 40.3243L306.158 41.7968L305.961 41.883ZM308.912 48.7583L311.4 43.2806L309.2 42.2817L309.947 40.6355L312.147 41.6344L312.696 40.4252C313.014 39.7259 313.5 39.2733 314.156 39.0673C314.812 38.8614 315.524 38.9326 316.291 39.281L318.636 40.3461L317.909 41.9486L315.607 40.9034C315.374 40.7975 315.154 40.7795 314.946 40.8494C314.753 40.9139 314.605 41.0578 314.504 41.2812L313.968 42.4612L317.042 43.8571L316.295 45.5033L313.221 44.1075L310.733 49.5852L308.912 48.7583ZM315.04 51.5407L315.794 49.8799L318.591 51.15L320.728 46.4444L318.295 45.3397L319.043 43.6935L323.224 45.592L320.339 51.9439L322.816 53.0684L322.062 54.7292L315.04 51.5407ZM322.812 43.7887C322.443 43.6211 322.194 43.3965 322.064 43.115C321.939 42.8237 321.949 42.5178 322.094 42.1973C322.24 41.8768 322.461 41.6728 322.759 41.5853C323.061 41.488 323.396 41.5232 323.765 41.6908C324.134 41.8584 324.381 42.0878 324.507 42.3791C324.637 42.6607 324.629 42.9617 324.483 43.2822C324.338 43.6027 324.114 43.8116 323.812 43.9088C323.515 43.9963 323.182 43.9563 322.812 43.7887ZM323.061 55.1831L326.7 47.1705L328.477 47.9775L327.783 49.5072L328.278 49.7321L327.591 49.9297C327.891 49.2693 328.314 48.8405 328.86 48.6434C329.416 48.4508 330.029 48.5066 330.699 48.8109C331.486 49.1681 331.994 49.7148 332.222 50.4509C332.459 51.1915 332.378 52.0037 331.976 52.8875L329.588 58.1467L327.767 57.3198L330.069 52.25C330.29 51.7644 330.333 51.3331 330.2 50.9562C330.066 50.5793 329.771 50.2873 329.315 50.08C328.868 49.8771 328.452 49.8521 328.066 50.005C327.69 50.1623 327.387 50.4934 327.158 50.9985L324.883 56.01L323.061 55.1831ZM334.266 60.4464C333.586 60.1377 333.053 59.7375 332.667 59.246C332.281 58.7544 332.053 58.2116 331.983 57.6175C331.927 57.0181 332.043 56.4028 332.329 55.7715L333.242 53.761C333.529 53.1297 333.914 52.6427 334.398 52.3C334.895 51.952 335.456 51.7616 336.08 51.7287C336.704 51.6958 337.356 51.8337 338.036 52.1424C338.706 52.4467 339.23 52.8424 339.606 53.3295C339.992 53.8211 340.213 54.3666 340.269 54.966C340.339 55.56 340.23 56.1727 339.944 56.804L339.289 58.2463L334.35 56.0038L334.092 56.5719C333.836 57.1352 333.778 57.6243 333.918 58.0392C334.062 58.4443 334.401 58.7682 334.935 59.0107C335.343 59.1959 335.704 59.2779 336.018 59.2566C336.337 59.2256 336.592 59.0895 336.784 58.8484L338.575 59.6621C338.126 60.2899 337.506 60.676 336.714 60.8202C335.936 60.9591 335.12 60.8345 334.266 60.4464ZM337.989 56.4261L338.187 55.989C338.439 55.4354 338.499 54.9534 338.37 54.543C338.244 54.1228 337.919 53.7937 337.395 53.5555C336.87 53.3174 336.404 53.2871 335.995 53.4647C335.586 53.6423 335.256 54.0079 335.005 54.5615L334.866 54.8674L338.186 56.3399L337.989 56.4261ZM341.573 63.7646C340.777 63.403 340.257 62.8329 340.013 62.0544C339.778 61.2803 339.873 60.427 340.296 59.4947L341.282 57.324C341.71 56.3819 342.292 55.7443 343.029 55.4112C343.766 55.0781 344.538 55.0946 345.344 55.4606C346.004 55.7605 346.443 56.188 346.659 56.7432C346.88 57.2887 346.843 57.8868 346.547 58.5375L346.331 57.9298L346.754 58.1216L347.562 56.1867L348.581 53.9432L350.402 54.7701L345.573 65.405L343.796 64.598L344.49 63.0683L344.082 62.8831L344.682 62.6458C344.387 63.2965 343.959 63.7231 343.398 63.9255C342.842 64.1181 342.234 64.0645 341.573 63.7646ZM342.929 62.4823C343.395 62.694 343.816 62.7212 344.192 62.5639C344.582 62.4013 344.89 62.0724 345.115 61.577L346.027 59.5666C346.252 59.0713 346.295 58.6281 346.157 58.2371C346.032 57.8408 345.737 57.5368 345.27 57.3251C344.804 57.1134 344.378 57.084 343.993 57.2368C343.607 57.3897 343.299 57.7187 343.07 58.2237L342.157 60.2342C341.928 60.7392 341.883 61.1872 342.021 61.5782C342.16 61.9693 342.463 62.2706 342.929 62.4823Z" fill="#454C48"/>
</svg>
