<svg width="592" height="213" viewBox="0 0 592 213" fill="none" xmlns="http://www.w3.org/2000/svg">
<rect x="2" y="2" width="588" height="209" rx="14" fill="#202220" fill-opacity="0.5"/>
<path d="M86.122 100.7C85.122 100.7 84.2554 100.533 83.522 100.2C82.7887 99.8667 82.222 99.3933 81.822 98.78C81.4354 98.1533 81.2354 97.42 81.222 96.58H83.722C83.722 97.18 83.9354 97.6533 84.362 98C84.802 98.3333 85.3954 98.5 86.142 98.5C86.862 98.5 87.422 98.3333 87.822 98C88.2354 97.6667 88.442 97.2067 88.442 96.62C88.442 96.1267 88.2954 95.7 88.002 95.34C87.722 94.9667 87.3154 94.7133 86.782 94.58L85.102 94.12C83.9554 93.8267 83.0687 93.3 82.442 92.54C81.8287 91.78 81.522 90.86 81.522 89.78C81.522 88.9533 81.7087 88.2333 82.082 87.62C82.4554 87.0067 82.982 86.5333 83.662 86.2C84.3554 85.8667 85.1687 85.7 86.102 85.7C87.5154 85.7 88.6354 86.0667 89.462 86.8C90.2887 87.52 90.7087 88.4933 90.722 89.72H88.222C88.222 89.1467 88.0354 88.7 87.662 88.38C87.2887 88.0467 86.762 87.88 86.082 87.88C85.4287 87.88 84.922 88.0333 84.562 88.34C84.202 88.6467 84.022 89.08 84.022 89.64C84.022 90.1467 84.1554 90.58 84.422 90.94C84.702 91.2867 85.102 91.5333 85.622 91.68L87.362 92.16C88.522 92.4533 89.4087 92.98 90.022 93.74C90.6354 94.4867 90.942 95.4133 90.942 96.52C90.942 97.3467 90.742 98.08 90.342 98.72C89.942 99.3467 89.382 99.8333 88.662 100.18C87.942 100.527 87.0954 100.7 86.122 100.7ZM97.0742 100.68C96.1409 100.68 95.3276 100.507 94.6342 100.16C93.9542 99.8 93.4209 99.3 93.0342 98.66C92.6609 98.0067 92.4742 97.24 92.4742 96.36V93.64C92.4742 92.76 92.6609 92 93.0342 91.36C93.4209 90.7067 93.9542 90.2067 94.6342 89.86C95.3276 89.5 96.1409 89.32 97.0742 89.32C98.0209 89.32 98.8342 89.5 99.5142 89.86C100.194 90.2067 100.721 90.7067 101.094 91.36C101.481 92 101.674 92.7533 101.674 93.62V96.36C101.674 97.24 101.481 98.0067 101.094 98.66C100.721 99.3 100.194 99.8 99.5142 100.16C98.8342 100.507 98.0209 100.68 97.0742 100.68ZM97.0742 98.5C97.7409 98.5 98.2542 98.32 98.6142 97.96C98.9876 97.5867 99.1742 97.0533 99.1742 96.36V93.64C99.1742 92.9333 98.9876 92.4 98.6142 92.04C98.2542 91.68 97.7409 91.5 97.0742 91.5C96.4209 91.5 95.9076 91.68 95.5342 92.04C95.1609 92.4 94.9742 92.9333 94.9742 93.64V96.36C94.9742 97.0533 95.1609 97.5867 95.5342 97.96C95.9076 98.32 96.4209 98.5 97.0742 98.5ZM103.946 100.5V89.5H106.306V91.6H106.926L106.186 92.88C106.186 91.6933 106.453 90.8 106.986 90.2C107.52 89.6 108.306 89.3 109.346 89.3C110.533 89.3 111.466 89.6667 112.146 90.4C112.826 91.1333 113.166 92.1467 113.166 93.44V94.24H110.546V93.62C110.546 92.9133 110.36 92.3667 109.986 91.98C109.626 91.5933 109.126 91.4 108.486 91.4C107.833 91.4 107.326 91.5933 106.966 91.98C106.62 92.3667 106.446 92.9133 106.446 93.62V100.5H103.946ZM114.939 100.5V89.5H117.299V91.6H117.919L117.179 92.88C117.179 91.6933 117.445 90.8 117.979 90.2C118.512 89.6 119.299 89.3 120.339 89.3C121.525 89.3 122.459 89.6667 123.139 90.4C123.819 91.1333 124.159 92.1467 124.159 93.44V94.24H121.539V93.62C121.539 92.9133 121.352 92.3667 120.979 91.98C120.619 91.5933 120.119 91.4 119.479 91.4C118.825 91.4 118.319 91.5933 117.959 91.98C117.612 92.3667 117.439 92.9133 117.439 93.62V100.5H114.939ZM127.371 104.1L128.911 99.9L124.811 89.5H127.551L129.591 95.12C129.697 95.4267 129.804 95.8 129.911 96.24C130.017 96.6667 130.097 97.02 130.151 97.3C130.217 97.02 130.304 96.6667 130.411 96.24C130.517 95.8 130.624 95.4267 130.731 95.12L132.651 89.5H135.291L129.991 104.1H127.371ZM138.043 103.7L139.643 97.48H142.843L140.243 103.7H138.043ZM163.967 100.7C163.061 100.7 162.341 100.447 161.807 99.94C161.274 99.42 161.007 98.7133 161.007 97.82L161.567 98.4H161.007V100.5H158.567V85.9H161.067V88.98L160.987 91.6H161.567L161.007 92.18C161.007 91.2867 161.274 90.5867 161.807 90.08C162.341 89.56 163.061 89.3 163.967 89.3C165.074 89.3 165.961 89.68 166.627 90.44C167.294 91.2 167.627 92.2267 167.627 93.52V96.5C167.627 97.78 167.294 98.8 166.627 99.56C165.961 100.32 165.074 100.7 163.967 100.7ZM163.087 98.54C163.727 98.54 164.227 98.3533 164.587 97.98C164.947 97.6067 165.127 97.0733 165.127 96.38V93.62C165.127 92.9267 164.947 92.3933 164.587 92.02C164.227 91.6467 163.727 91.46 163.087 91.46C162.461 91.46 161.967 91.6533 161.607 92.04C161.247 92.4133 161.067 92.94 161.067 93.62V96.38C161.067 97.06 161.247 97.5933 161.607 97.98C161.967 98.3533 162.461 98.54 163.087 98.54ZM174.02 100.7C172.62 100.7 171.52 100.313 170.72 99.54C169.92 98.7533 169.52 97.6867 169.52 96.34V89.5H172.02V96.32C172.02 97.0267 172.193 97.5733 172.54 97.96C172.886 98.3333 173.38 98.52 174.02 98.52C174.646 98.52 175.133 98.3333 175.48 97.96C175.84 97.5733 176.02 97.0267 176.02 96.32V89.5H178.52V96.34C178.52 97.6867 178.113 98.7533 177.3 99.54C176.486 100.313 175.393 100.7 174.02 100.7ZM186.212 100.5C185.158 100.5 184.332 100.207 183.732 99.62C183.145 99.0333 182.852 98.2267 182.852 97.2V91.76H179.872V89.5H182.852V86.4H185.372V89.5H189.592V91.76H185.372V97.2C185.372 97.8933 185.712 98.24 186.392 98.24H189.392V100.5H186.212ZM204.316 104.1L205.856 99.9L201.756 89.5H204.496L206.536 95.12C206.643 95.4267 206.749 95.8 206.856 96.24C206.963 96.6667 207.043 97.02 207.096 97.3C207.163 97.02 207.249 96.6667 207.356 96.24C207.463 95.8 207.569 95.4267 207.676 95.12L209.596 89.5H212.236L206.936 104.1H204.316ZM217.988 100.68C217.055 100.68 216.242 100.507 215.548 100.16C214.868 99.8 214.335 99.3 213.948 98.66C213.575 98.0067 213.388 97.24 213.388 96.36V93.64C213.388 92.76 213.575 92 213.948 91.36C214.335 90.7067 214.868 90.2067 215.548 89.86C216.242 89.5 217.055 89.32 217.988 89.32C218.935 89.32 219.748 89.5 220.428 89.86C221.108 90.2067 221.635 90.7067 222.008 91.36C222.395 92 222.588 92.7533 222.588 93.62V96.36C222.588 97.24 222.395 98.0067 222.008 98.66C221.635 99.3 221.108 99.8 220.428 100.16C219.748 100.507 218.935 100.68 217.988 100.68ZM217.988 98.5C218.655 98.5 219.168 98.32 219.528 97.96C219.902 97.5867 220.088 97.0533 220.088 96.36V93.64C220.088 92.9333 219.902 92.4 219.528 92.04C219.168 91.68 218.655 91.5 217.988 91.5C217.335 91.5 216.822 91.68 216.448 92.04C216.075 92.4 215.888 92.9333 215.888 93.64V96.36C215.888 97.0533 216.075 97.5867 216.448 97.96C216.822 98.32 217.335 98.5 217.988 98.5ZM228.98 100.7C227.58 100.7 226.48 100.313 225.68 99.54C224.88 98.7533 224.48 97.6867 224.48 96.34V89.5H226.98V96.32C226.98 97.0267 227.154 97.5733 227.5 97.96C227.847 98.3333 228.34 98.52 228.98 98.52C229.607 98.52 230.094 98.3333 230.44 97.96C230.8 97.5733 230.98 97.0267 230.98 96.32V89.5H233.48V96.34C233.48 97.6867 233.074 98.7533 232.26 99.54C231.447 100.313 230.354 100.7 228.98 100.7ZM235.853 100.5V89.5H238.213V91.6H238.833L238.093 92.88C238.093 91.6933 238.359 90.8 238.893 90.2C239.426 89.6 240.213 89.3 241.253 89.3C242.439 89.3 243.373 89.6667 244.053 90.4C244.733 91.1333 245.073 92.1467 245.073 93.44V94.24H242.453V93.62C242.453 92.9133 242.266 92.3667 241.893 91.98C241.533 91.5933 241.033 91.4 240.393 91.4C239.739 91.4 239.233 91.5933 238.873 91.98C238.526 92.3667 238.353 92.9133 238.353 93.62V100.5H235.853ZM257.477 100.5V98.22H261.317V91.76H257.977V89.5H263.717V98.22H267.117V100.5H257.477ZM262.317 87.66C261.81 87.66 261.41 87.5333 261.117 87.28C260.824 87.0133 260.677 86.66 260.677 86.22C260.677 85.78 260.824 85.4333 261.117 85.18C261.41 84.9133 261.81 84.78 262.317 84.78C262.824 84.78 263.224 84.9133 263.517 85.18C263.81 85.4333 263.957 85.78 263.957 86.22C263.957 86.66 263.81 87.0133 263.517 87.28C263.224 87.5333 262.824 87.66 262.317 87.66ZM267.989 100.5V89.5H270.029V90.98H270.449L270.109 91.34C270.109 90.7267 270.283 90.2333 270.629 89.86C270.976 89.4867 271.423 89.3 271.969 89.3C272.556 89.3 273.009 89.54 273.329 90.02C273.663 90.5 273.829 91.1467 273.829 91.96L273.389 90.98H274.069L273.809 91.34C273.809 90.7267 273.983 90.2333 274.329 89.86C274.676 89.4867 275.136 89.3 275.709 89.3C276.389 89.3 276.929 89.5533 277.329 90.06C277.729 90.5667 277.929 91.2533 277.929 92.12V100.5H275.729V92.22C275.729 91.86 275.649 91.58 275.489 91.38C275.329 91.1667 275.096 91.06 274.789 91.06C274.496 91.06 274.263 91.16 274.089 91.36C273.929 91.56 273.849 91.8467 273.849 92.22V100.5H272.049V92.22C272.049 91.8467 271.969 91.56 271.809 91.36C271.649 91.16 271.416 91.06 271.109 91.06C270.803 91.06 270.569 91.16 270.409 91.36C270.263 91.56 270.189 91.8467 270.189 92.22V100.5H267.989ZM282.721 100.7C281.588 100.7 280.695 100.4 280.041 99.8C279.388 99.2 279.061 98.3933 279.061 97.38C279.061 96.3 279.421 95.4667 280.141 94.88C280.861 94.2933 281.881 94 283.201 94H285.941V93.06C285.941 92.5267 285.768 92.1133 285.421 91.82C285.075 91.5133 284.601 91.36 284.001 91.36C283.455 91.36 283.001 91.48 282.641 91.72C282.281 91.96 282.068 92.2867 282.001 92.7H279.561C279.681 91.66 280.148 90.8333 280.961 90.22C281.775 89.6067 282.815 89.3 284.081 89.3C285.428 89.3 286.488 89.64 287.261 90.32C288.048 90.9867 288.441 91.8933 288.441 93.04V100.5H286.021V98.58H285.621L286.021 98.04C286.021 98.8533 285.721 99.5 285.121 99.98C284.521 100.46 283.721 100.7 282.721 100.7ZM283.541 98.82C284.248 98.82 284.821 98.64 285.261 98.28C285.715 97.92 285.941 97.4533 285.941 96.88V95.54H283.241C282.735 95.54 282.328 95.6867 282.021 95.98C281.715 96.2733 281.561 96.66 281.561 97.14C281.561 97.66 281.735 98.0733 282.081 98.38C282.441 98.6733 282.928 98.82 283.541 98.82ZM291.974 104.1V102.02H295.234C295.794 102.02 296.214 101.88 296.494 101.6C296.774 101.333 296.914 100.947 296.914 100.44V99.62L296.954 97.56H296.414L296.954 97.02C296.954 97.9133 296.687 98.6133 296.154 99.12C295.634 99.6133 294.927 99.86 294.034 99.86C292.914 99.86 292.02 99.48 291.354 98.72C290.7 97.96 290.374 96.9333 290.374 95.64V93.5C290.374 92.22 290.7 91.2 291.354 90.44C292.02 89.68 292.914 89.3 294.034 89.3C294.927 89.3 295.634 89.5533 296.154 90.06C296.687 90.5533 296.954 91.2467 296.954 92.14L296.414 91.6H296.954L296.894 89.5H299.394V100.5C299.394 101.607 299.027 102.48 298.294 103.12C297.56 103.773 296.554 104.1 295.274 104.1H291.974ZM294.874 97.7C295.514 97.7 296.007 97.5133 296.354 97.14C296.714 96.7533 296.894 96.22 296.894 95.54V93.62C296.894 92.94 296.714 92.4133 296.354 92.04C296.007 91.6533 295.514 91.46 294.874 91.46C294.234 91.46 293.74 91.6467 293.394 92.02C293.047 92.3933 292.874 92.9267 292.874 93.62V95.54C292.874 96.2333 293.047 96.7667 293.394 97.14C293.74 97.5133 294.234 97.7 294.874 97.7ZM305.946 100.7C305.012 100.7 304.199 100.52 303.506 100.16C302.812 99.8 302.272 99.3 301.886 98.66C301.512 98.0067 301.326 97.2467 301.326 96.38V93.62C301.326 92.7533 301.512 92 301.886 91.36C302.272 90.7067 302.812 90.2 303.506 89.84C304.199 89.48 305.012 89.3 305.946 89.3C306.866 89.3 307.666 89.48 308.346 89.84C309.039 90.2 309.572 90.7067 309.946 91.36C310.332 92 310.526 92.7533 310.526 93.62V95.6H303.746V96.38C303.746 97.1533 303.932 97.74 304.306 98.14C304.679 98.5267 305.232 98.72 305.966 98.72C306.526 98.72 306.979 98.6267 307.326 98.44C307.672 98.24 307.892 97.9533 307.986 97.58H310.446C310.259 98.5267 309.752 99.2867 308.926 99.86C308.112 100.42 307.119 100.7 305.946 100.7ZM308.106 94.2V93.6C308.106 92.84 307.926 92.26 307.566 91.86C307.206 91.4467 306.666 91.24 305.946 91.24C305.226 91.24 304.679 91.4467 304.306 91.86C303.932 92.2733 303.746 92.86 303.746 93.62V94.04L308.286 94L308.106 94.2ZM68.6538 126.7C67.5604 126.7 66.6738 126.32 65.9938 125.56C65.3271 124.8 64.9938 123.78 64.9938 122.5V119.52C64.9938 118.227 65.3271 117.2 65.9938 116.44C66.6604 115.68 67.5471 115.3 68.6538 115.3C69.5604 115.3 70.2804 115.56 70.8138 116.08C71.3471 116.587 71.6138 117.287 71.6138 118.18L71.0538 117.6H71.6338L71.5538 114.98V111.9H74.0538V126.5H71.6138V124.4H71.0538L71.6138 123.82C71.6138 124.713 71.3471 125.42 70.8138 125.94C70.2804 126.447 69.5604 126.7 68.6538 126.7ZM69.5338 124.54C70.1738 124.54 70.6671 124.353 71.0138 123.98C71.3738 123.593 71.5538 123.06 71.5538 122.38V119.62C71.5538 118.94 71.3738 118.413 71.0138 118.04C70.6671 117.653 70.1738 117.46 69.5338 117.46C68.8938 117.46 68.3938 117.647 68.0338 118.02C67.6738 118.393 67.4938 118.927 67.4938 119.62V122.38C67.4938 123.073 67.6738 123.607 68.0338 123.98C68.3938 124.353 68.8938 124.54 69.5338 124.54ZM80.5859 126.68C79.6526 126.68 78.8393 126.507 78.1459 126.16C77.4659 125.8 76.9326 125.3 76.5459 124.66C76.1726 124.007 75.9859 123.24 75.9859 122.36V119.64C75.9859 118.76 76.1726 118 76.5459 117.36C76.9326 116.707 77.4659 116.207 78.1459 115.86C78.8393 115.5 79.6526 115.32 80.5859 115.32C81.5326 115.32 82.3459 115.5 83.0259 115.86C83.7059 116.207 84.2326 116.707 84.6059 117.36C84.9926 118 85.1859 118.753 85.1859 119.62V122.36C85.1859 123.24 84.9926 124.007 84.6059 124.66C84.2326 125.3 83.7059 125.8 83.0259 126.16C82.3459 126.507 81.5326 126.68 80.5859 126.68ZM80.5859 124.5C81.2526 124.5 81.7659 124.32 82.1259 123.96C82.4993 123.587 82.6859 123.053 82.6859 122.36V119.64C82.6859 118.933 82.4993 118.4 82.1259 118.04C81.7659 117.68 81.2526 117.5 80.5859 117.5C79.9326 117.5 79.4193 117.68 79.0459 118.04C78.6726 118.4 78.4859 118.933 78.4859 119.64V122.36C78.4859 123.053 78.6726 123.587 79.0459 123.96C79.4193 124.32 79.9326 124.5 80.5859 124.5ZM91.5981 126.7C90.6648 126.7 89.8515 126.52 89.1581 126.16C88.4648 125.8 87.9248 125.3 87.5381 124.66C87.1648 124.007 86.9781 123.247 86.9781 122.38V119.62C86.9781 118.753 87.1648 118 87.5381 117.36C87.9248 116.707 88.4648 116.2 89.1581 115.84C89.8515 115.48 90.6648 115.3 91.5981 115.3C92.5181 115.3 93.3181 115.48 93.9981 115.84C94.6915 116.2 95.2248 116.707 95.5981 117.36C95.9848 118 96.1781 118.753 96.1781 119.62V121.6H89.3981V122.38C89.3981 123.153 89.5848 123.74 89.9581 124.14C90.3315 124.527 90.8848 124.72 91.6181 124.72C92.1781 124.72 92.6315 124.627 92.9781 124.44C93.3248 124.24 93.5448 123.953 93.6381 123.58H96.0981C95.9115 124.527 95.4048 125.287 94.5781 125.86C93.7648 126.42 92.7715 126.7 91.5981 126.7ZM93.7581 120.2V119.6C93.7581 118.84 93.5781 118.26 93.2181 117.86C92.8581 117.447 92.3181 117.24 91.5981 117.24C90.8781 117.24 90.3315 117.447 89.9581 117.86C89.5848 118.273 89.3981 118.86 89.3981 119.62V120.04L93.9381 120L93.7581 120.2ZM102.15 126.68C101.31 126.68 100.577 126.547 99.9503 126.28C99.3236 126.013 98.8303 125.647 98.4703 125.18C98.1236 124.7 97.937 124.14 97.9103 123.5H100.41C100.437 123.847 100.604 124.127 100.91 124.34C101.23 124.553 101.644 124.66 102.15 124.66H103.03C103.644 124.66 104.104 124.54 104.41 124.3C104.717 124.06 104.87 123.733 104.87 123.32C104.87 122.933 104.73 122.633 104.45 122.42C104.184 122.193 103.764 122.047 103.19 121.98L101.83 121.78C100.577 121.607 99.657 121.273 99.0703 120.78C98.4836 120.287 98.1903 119.547 98.1903 118.56C98.1903 117.533 98.537 116.74 99.2303 116.18C99.9236 115.607 100.944 115.32 102.29 115.32H103.05C104.277 115.32 105.257 115.593 105.99 116.14C106.724 116.687 107.117 117.42 107.17 118.34H104.67C104.63 118.047 104.464 117.807 104.17 117.62C103.89 117.433 103.517 117.34 103.05 117.34H102.29C101.717 117.34 101.297 117.447 101.03 117.66C100.777 117.86 100.65 118.16 100.65 118.56C100.65 118.933 100.764 119.213 100.99 119.4C101.217 119.573 101.584 119.7 102.09 119.78L103.51 119.98C104.817 120.167 105.777 120.52 106.39 121.04C107.017 121.547 107.33 122.3 107.33 123.3C107.33 124.367 106.964 125.2 106.23 125.8C105.51 126.387 104.444 126.68 103.03 126.68H102.15ZM109.103 126.5V115.5H111.543V117.6H112.223L111.543 118.18C111.543 117.273 111.803 116.567 112.323 116.06C112.856 115.553 113.583 115.3 114.503 115.3C115.583 115.3 116.443 115.66 117.083 116.38C117.736 117.1 118.063 118.067 118.063 119.28V126.5H115.563V119.54C115.563 118.873 115.389 118.36 115.043 118C114.696 117.64 114.209 117.46 113.583 117.46C112.969 117.46 112.483 117.647 112.123 118.02C111.776 118.393 111.603 118.927 111.603 119.62V126.5H109.103ZM121.455 117.2L123.055 110.98H126.255L123.655 117.2H121.455ZM136.747 126.5C135.694 126.5 134.867 126.207 134.267 125.62C133.68 125.033 133.387 124.227 133.387 123.2V117.76H130.407V115.5H133.387V112.4H135.907V115.5H140.127V117.76H135.907V123.2C135.907 123.893 136.247 124.24 136.927 124.24H139.927V126.5H136.747ZM157.551 126.7C156.618 126.7 155.805 126.52 155.111 126.16C154.418 125.8 153.878 125.3 153.491 124.66C153.118 124.007 152.931 123.247 152.931 122.38V119.62C152.931 118.753 153.118 118 153.491 117.36C153.878 116.707 154.418 116.2 155.111 115.84C155.805 115.48 156.618 115.3 157.551 115.3C158.471 115.3 159.271 115.48 159.951 115.84C160.645 116.2 161.178 116.707 161.551 117.36C161.938 118 162.131 118.753 162.131 119.62V121.6H155.351V122.38C155.351 123.153 155.538 123.74 155.911 124.14C156.285 124.527 156.838 124.72 157.571 124.72C158.131 124.72 158.585 124.627 158.931 124.44C159.278 124.24 159.498 123.953 159.591 123.58H162.051C161.865 124.527 161.358 125.287 160.531 125.86C159.718 126.42 158.725 126.7 157.551 126.7ZM159.711 120.2V119.6C159.711 118.84 159.531 118.26 159.171 117.86C158.811 117.447 158.271 117.24 157.551 117.24C156.831 117.24 156.285 117.447 155.911 117.86C155.538 118.273 155.351 118.86 155.351 119.62V120.04L159.891 120L159.711 120.2ZM163.243 126.5L167.083 120.82L163.503 115.5H166.323L168.023 118.2C168.13 118.36 168.223 118.54 168.303 118.74C168.397 118.94 168.47 119.1 168.523 119.22C168.577 119.1 168.65 118.94 168.743 118.74C168.837 118.54 168.93 118.36 169.023 118.2L170.743 115.5H173.563L169.983 120.82L173.803 126.5H170.963L169.063 123.48C168.957 123.307 168.857 123.12 168.763 122.92C168.67 122.72 168.59 122.56 168.523 122.44C168.47 122.56 168.397 122.72 168.303 122.92C168.21 123.12 168.11 123.307 168.003 123.48L166.063 126.5H163.243ZM175.036 126.5V124.22H178.876V117.76H175.536V115.5H181.276V124.22H184.676V126.5H175.036ZM179.876 113.66C179.369 113.66 178.969 113.533 178.676 113.28C178.382 113.013 178.236 112.66 178.236 112.22C178.236 111.78 178.382 111.433 178.676 111.18C178.969 110.913 179.369 110.78 179.876 110.78C180.382 110.78 180.782 110.913 181.076 111.18C181.369 111.433 181.516 111.78 181.516 112.22C181.516 112.66 181.369 113.013 181.076 113.28C180.782 113.533 180.382 113.66 179.876 113.66ZM190.088 126.68C189.248 126.68 188.514 126.547 187.888 126.28C187.261 126.013 186.768 125.647 186.408 125.18C186.061 124.7 185.874 124.14 185.848 123.5H188.348C188.374 123.847 188.541 124.127 188.848 124.34C189.168 124.553 189.581 124.66 190.088 124.66H190.968C191.581 124.66 192.041 124.54 192.348 124.3C192.654 124.06 192.808 123.733 192.808 123.32C192.808 122.933 192.668 122.633 192.388 122.42C192.121 122.193 191.701 122.047 191.128 121.98L189.768 121.78C188.514 121.607 187.594 121.273 187.008 120.78C186.421 120.287 186.128 119.547 186.128 118.56C186.128 117.533 186.474 116.74 187.168 116.18C187.861 115.607 188.881 115.32 190.228 115.32H190.988C192.214 115.32 193.194 115.593 193.928 116.14C194.661 116.687 195.054 117.42 195.108 118.34H192.608C192.568 118.047 192.401 117.807 192.108 117.62C191.828 117.433 191.454 117.34 190.988 117.34H190.228C189.654 117.34 189.234 117.447 188.968 117.66C188.714 117.86 188.588 118.16 188.588 118.56C188.588 118.933 188.701 119.213 188.928 119.4C189.154 119.573 189.521 119.7 190.028 119.78L191.448 119.98C192.754 120.167 193.714 120.52 194.328 121.04C194.954 121.547 195.268 122.3 195.268 123.3C195.268 124.367 194.901 125.2 194.168 125.8C193.448 126.387 192.381 126.68 190.968 126.68H190.088ZM202.7 126.5C201.647 126.5 200.82 126.207 200.22 125.62C199.633 125.033 199.34 124.227 199.34 123.2V117.76H196.36V115.5H199.34V112.4H201.86V115.5H206.08V117.76H201.86V123.2C201.86 123.893 202.2 124.24 202.88 124.24H205.88V126.5H202.7ZM222.264 126.7C221.131 126.7 220.238 126.4 219.584 125.8C218.931 125.2 218.604 124.393 218.604 123.38C218.604 122.3 218.964 121.467 219.684 120.88C220.404 120.293 221.424 120 222.744 120H225.484V119.06C225.484 118.527 225.311 118.113 224.964 117.82C224.618 117.513 224.144 117.36 223.544 117.36C222.998 117.36 222.544 117.48 222.184 117.72C221.824 117.96 221.611 118.287 221.544 118.7H219.104C219.224 117.66 219.691 116.833 220.504 116.22C221.318 115.607 222.358 115.3 223.624 115.3C224.971 115.3 226.031 115.64 226.804 116.32C227.591 116.987 227.984 117.893 227.984 119.04V126.5H225.564V124.58H225.164L225.564 124.04C225.564 124.853 225.264 125.5 224.664 125.98C224.064 126.46 223.264 126.7 222.264 126.7ZM223.084 124.82C223.791 124.82 224.364 124.64 224.804 124.28C225.258 123.92 225.484 123.453 225.484 122.88V121.54H222.784C222.278 121.54 221.871 121.687 221.564 121.98C221.258 122.273 221.104 122.66 221.104 123.14C221.104 123.66 221.278 124.073 221.624 124.38C221.984 124.673 222.471 124.82 223.084 124.82ZM230.017 126.5V115.5H232.457V117.6H233.137L232.457 118.18C232.457 117.273 232.717 116.567 233.237 116.06C233.77 115.553 234.497 115.3 235.417 115.3C236.497 115.3 237.357 115.66 237.997 116.38C238.65 117.1 238.977 118.067 238.977 119.28V126.5H236.477V119.54C236.477 118.873 236.303 118.36 235.957 118C235.61 117.64 235.123 117.46 234.497 117.46C233.883 117.46 233.397 117.647 233.037 118.02C232.69 118.393 232.517 118.927 232.517 119.62V126.5H230.017ZM242.789 130.1L244.329 125.9L240.229 115.5H242.969L245.009 121.12C245.115 121.427 245.222 121.8 245.329 122.24C245.435 122.667 245.515 123.02 245.569 123.3C245.635 123.02 245.722 122.667 245.829 122.24C245.935 121.8 246.042 121.427 246.149 121.12L248.069 115.5H250.709L245.409 130.1H242.789ZM251.501 126.5V115.5H253.541V116.98H253.961L253.621 117.34C253.621 116.727 253.794 116.233 254.141 115.86C254.488 115.487 254.934 115.3 255.481 115.3C256.068 115.3 256.521 115.54 256.841 116.02C257.174 116.5 257.341 117.147 257.341 117.96L256.901 116.98H257.581L257.321 117.34C257.321 116.727 257.494 116.233 257.841 115.86C258.188 115.487 258.648 115.3 259.221 115.3C259.901 115.3 260.441 115.553 260.841 116.06C261.241 116.567 261.441 117.253 261.441 118.12V126.5H259.241V118.22C259.241 117.86 259.161 117.58 259.001 117.38C258.841 117.167 258.608 117.06 258.301 117.06C258.008 117.06 257.774 117.16 257.601 117.36C257.441 117.56 257.361 117.847 257.361 118.22V126.5H255.561V118.22C255.561 117.847 255.481 117.56 255.321 117.36C255.161 117.16 254.928 117.06 254.621 117.06C254.314 117.06 254.081 117.16 253.921 117.36C253.774 117.56 253.701 117.847 253.701 118.22V126.5H251.501ZM267.453 126.68C266.52 126.68 265.706 126.507 265.013 126.16C264.333 125.8 263.8 125.3 263.413 124.66C263.04 124.007 262.853 123.24 262.853 122.36V119.64C262.853 118.76 263.04 118 263.413 117.36C263.8 116.707 264.333 116.207 265.013 115.86C265.706 115.5 266.52 115.32 267.453 115.32C268.4 115.32 269.213 115.5 269.893 115.86C270.573 116.207 271.1 116.707 271.473 117.36C271.86 118 272.053 118.753 272.053 119.62V122.36C272.053 123.24 271.86 124.007 271.473 124.66C271.1 125.3 270.573 125.8 269.893 126.16C269.213 126.507 268.4 126.68 267.453 126.68ZM267.453 124.5C268.12 124.5 268.633 124.32 268.993 123.96C269.366 123.587 269.553 123.053 269.553 122.36V119.64C269.553 118.933 269.366 118.4 268.993 118.04C268.633 117.68 268.12 117.5 267.453 117.5C266.8 117.5 266.286 117.68 265.913 118.04C265.54 118.4 265.353 118.933 265.353 119.64V122.36C265.353 123.053 265.54 123.587 265.913 123.96C266.286 124.32 266.8 124.5 267.453 124.5ZM274.325 126.5V115.5H276.685V117.6H277.305L276.565 118.88C276.565 117.693 276.832 116.8 277.365 116.2C277.899 115.6 278.685 115.3 279.725 115.3C280.912 115.3 281.845 115.667 282.525 116.4C283.205 117.133 283.545 118.147 283.545 119.44V120.24H280.925V119.62C280.925 118.913 280.739 118.367 280.365 117.98C280.005 117.593 279.505 117.4 278.865 117.4C278.212 117.4 277.705 117.593 277.345 117.98C276.999 118.367 276.825 118.913 276.825 119.62V126.5H274.325ZM289.458 126.7C288.524 126.7 287.711 126.52 287.018 126.16C286.324 125.8 285.784 125.3 285.398 124.66C285.024 124.007 284.838 123.247 284.838 122.38V119.62C284.838 118.753 285.024 118 285.398 117.36C285.784 116.707 286.324 116.2 287.018 115.84C287.711 115.48 288.524 115.3 289.458 115.3C290.378 115.3 291.178 115.48 291.858 115.84C292.551 116.2 293.084 116.707 293.458 117.36C293.844 118 294.038 118.753 294.038 119.62V121.6H287.258V122.38C287.258 123.153 287.444 123.74 287.818 124.14C288.191 124.527 288.744 124.72 289.478 124.72C290.038 124.72 290.491 124.627 290.838 124.44C291.184 124.24 291.404 123.953 291.498 123.58H293.958C293.771 124.527 293.264 125.287 292.438 125.86C291.624 126.42 290.631 126.7 289.458 126.7ZM291.618 120.2V119.6C291.618 118.84 291.438 118.26 291.078 117.86C290.718 117.447 290.178 117.24 289.458 117.24C288.738 117.24 288.191 117.447 287.818 117.86C287.444 118.273 287.258 118.86 287.258 119.62V120.04L291.798 120L291.618 120.2ZM311.422 118.66C310.862 118.66 310.409 118.507 310.062 118.2C309.729 117.88 309.562 117.473 309.562 116.98C309.562 116.473 309.729 116.067 310.062 115.76C310.409 115.453 310.862 115.3 311.422 115.3C311.982 115.3 312.429 115.453 312.762 115.76C313.109 116.067 313.282 116.473 313.282 116.98C313.282 117.473 313.109 117.88 312.762 118.2C312.429 118.507 311.982 118.66 311.422 118.66ZM311.422 126.7C310.862 126.7 310.409 126.547 310.062 126.24C309.729 125.933 309.562 125.527 309.562 125.02C309.562 124.513 309.729 124.107 310.062 123.8C310.409 123.493 310.862 123.34 311.422 123.34C311.982 123.34 312.429 123.493 312.762 123.8C313.109 124.107 313.282 124.513 313.282 125.02C313.282 125.527 313.109 125.933 312.762 126.24C312.429 126.547 311.982 126.7 311.422 126.7ZM326.114 128.9C324.087 128.367 322.521 127.427 321.414 126.08C320.307 124.72 319.754 123.067 319.754 121.12V117.5C319.754 116.22 320.007 115.06 320.514 114.02C321.034 112.967 321.767 112.073 322.714 111.34C323.674 110.593 324.807 110.047 326.114 109.7V112.16C325.327 112.347 324.641 112.687 324.054 113.18C323.481 113.673 323.041 114.287 322.734 115.02C322.427 115.753 322.274 116.58 322.274 117.5V121.12C322.274 122.013 322.427 122.827 322.734 123.56C323.041 124.28 323.481 124.887 324.054 125.38C324.641 125.86 325.327 126.193 326.114 126.38V128.9Z" fill="white"/>
<circle cx="444.5" cy="106.5" r="84" fill="#202220"/>
<line x1="397.328" y1="65.1716" x2="436.328" y2="104.172" stroke="#454C48" stroke-width="8"/>
<line x1="453.328" y1="65.1716" x2="492.328" y2="104.172" stroke="#454C48" stroke-width="8"/>
<line y1="-4" x2="55.1543" y2="-4" transform="matrix(-0.707107 0.707107 0.707107 0.707107 495.5 68)" stroke="#454C48" stroke-width="8"/>
<line y1="-4" x2="55.1543" y2="-4" transform="matrix(-0.707107 0.707107 0.707107 0.707107 439.5 68)" stroke="#454C48" stroke-width="8"/>
<line x1="401.455" y1="122" x2="489.455" y2="121" stroke="#454C48" stroke-width="8"/>
<path d="M489.5 128.701C489.5 141.955 478.755 152.701 465.5 152.701C452.245 152.701 441.5 141.955 441.5 128.701C441.5 115.446 452.245 118.247 465.5 118.247C478.755 118.247 489.5 115.446 489.5 128.701Z" fill="#454C48"/>
<rect x="2" y="2" width="588" height="209" rx="14" stroke="#454C48" stroke-width="4" stroke-dasharray="8 8"/>
</svg>
