<svg width="592" height="155" viewBox="0 0 592 155" fill="none" xmlns="http://www.w3.org/2000/svg">
<rect x="2" y="2" width="588" height="151" rx="14" fill="#202220" fill-opacity="0.5"/>
<path d="M106.997 71.7C105.997 71.7 105.13 71.5333 104.397 71.2C103.664 70.8667 103.097 70.3933 102.697 69.78C102.31 69.1533 102.11 68.42 102.097 67.58H104.597C104.597 68.18 104.81 68.6533 105.237 69C105.677 69.3333 106.27 69.5 107.017 69.5C107.737 69.5 108.297 69.3333 108.697 69C109.11 68.6667 109.317 68.2067 109.317 67.62C109.317 67.1267 109.17 66.7 108.877 66.34C108.597 65.9667 108.19 65.7133 107.657 65.58L105.977 65.12C104.83 64.8267 103.944 64.3 103.317 63.54C102.704 62.78 102.397 61.86 102.397 60.78C102.397 59.9533 102.584 59.2333 102.957 58.62C103.33 58.0067 103.857 57.5333 104.537 57.2C105.23 56.8667 106.044 56.7 106.977 56.7C108.39 56.7 109.51 57.0667 110.337 57.8C111.164 58.52 111.584 59.4933 111.597 60.72H109.097C109.097 60.1467 108.91 59.7 108.537 59.38C108.164 59.0467 107.637 58.88 106.957 58.88C106.304 58.88 105.797 59.0333 105.437 59.34C105.077 59.6467 104.897 60.08 104.897 60.64C104.897 61.1467 105.03 61.58 105.297 61.94C105.577 62.2867 105.977 62.5333 106.497 62.68L108.237 63.16C109.397 63.4533 110.284 63.98 110.897 64.74C111.51 65.4867 111.817 66.4133 111.817 67.52C111.817 68.3467 111.617 69.08 111.217 69.72C110.817 70.3467 110.257 70.8333 109.537 71.18C108.817 71.5267 107.97 71.7 106.997 71.7ZM117.949 71.68C117.016 71.68 116.203 71.5067 115.509 71.16C114.829 70.8 114.296 70.3 113.909 69.66C113.536 69.0067 113.349 68.24 113.349 67.36V64.64C113.349 63.76 113.536 63 113.909 62.36C114.296 61.7067 114.829 61.2067 115.509 60.86C116.203 60.5 117.016 60.32 117.949 60.32C118.896 60.32 119.709 60.5 120.389 60.86C121.069 61.2067 121.596 61.7067 121.969 62.36C122.356 63 122.549 63.7533 122.549 64.62V67.36C122.549 68.24 122.356 69.0067 121.969 69.66C121.596 70.3 121.069 70.8 120.389 71.16C119.709 71.5067 118.896 71.68 117.949 71.68ZM117.949 69.5C118.616 69.5 119.129 69.32 119.489 68.96C119.863 68.5867 120.049 68.0533 120.049 67.36V64.64C120.049 63.9333 119.863 63.4 119.489 63.04C119.129 62.68 118.616 62.5 117.949 62.5C117.296 62.5 116.783 62.68 116.409 63.04C116.036 63.4 115.849 63.9333 115.849 64.64V67.36C115.849 68.0533 116.036 68.5867 116.409 68.96C116.783 69.32 117.296 69.5 117.949 69.5ZM124.821 71.5V60.5H127.181V62.6H127.801L127.061 63.88C127.061 62.6933 127.328 61.8 127.861 61.2C128.395 60.6 129.181 60.3 130.221 60.3C131.408 60.3 132.341 60.6667 133.021 61.4C133.701 62.1333 134.041 63.1467 134.041 64.44V65.24H131.421V64.62C131.421 63.9133 131.235 63.3667 130.861 62.98C130.501 62.5933 130.001 62.4 129.361 62.4C128.708 62.4 128.201 62.5933 127.841 62.98C127.495 63.3667 127.321 63.9133 127.321 64.62V71.5H124.821ZM135.814 71.5V60.5H138.174V62.6H138.794L138.054 63.88C138.054 62.6933 138.32 61.8 138.854 61.2C139.387 60.6 140.174 60.3 141.214 60.3C142.4 60.3 143.334 60.6667 144.014 61.4C144.694 62.1333 145.034 63.1467 145.034 64.44V65.24H142.414V64.62C142.414 63.9133 142.227 63.3667 141.854 62.98C141.494 62.5933 140.994 62.4 140.354 62.4C139.7 62.4 139.194 62.5933 138.834 62.98C138.487 63.3667 138.314 63.9133 138.314 64.62V71.5H135.814ZM148.246 75.1L149.786 70.9L145.686 60.5H148.426L150.466 66.12C150.572 66.4267 150.679 66.8 150.786 67.24C150.892 67.6667 150.972 68.02 151.026 68.3C151.092 68.02 151.179 67.6667 151.286 67.24C151.392 66.8 151.499 66.4267 151.606 66.12L153.526 60.5H156.166L150.866 75.1H148.246ZM158.918 74.7L160.518 68.48H163.718L161.118 74.7H158.918ZM184.842 71.7C183.936 71.7 183.216 71.4467 182.682 70.94C182.149 70.42 181.882 69.7133 181.882 68.82L182.442 69.4H181.882V71.5H179.442V56.9H181.942V59.98L181.862 62.6H182.442L181.882 63.18C181.882 62.2867 182.149 61.5867 182.682 61.08C183.216 60.56 183.936 60.3 184.842 60.3C185.949 60.3 186.836 60.68 187.502 61.44C188.169 62.2 188.502 63.2267 188.502 64.52V67.5C188.502 68.78 188.169 69.8 187.502 70.56C186.836 71.32 185.949 71.7 184.842 71.7ZM183.962 69.54C184.602 69.54 185.102 69.3533 185.462 68.98C185.822 68.6067 186.002 68.0733 186.002 67.38V64.62C186.002 63.9267 185.822 63.3933 185.462 63.02C185.102 62.6467 184.602 62.46 183.962 62.46C183.336 62.46 182.842 62.6533 182.482 63.04C182.122 63.4133 181.942 63.94 181.942 64.62V67.38C181.942 68.06 182.122 68.5933 182.482 68.98C182.842 69.3533 183.336 69.54 183.962 69.54ZM194.895 71.7C193.495 71.7 192.395 71.3133 191.595 70.54C190.795 69.7533 190.395 68.6867 190.395 67.34V60.5H192.895V67.32C192.895 68.0267 193.068 68.5733 193.415 68.96C193.761 69.3333 194.255 69.52 194.895 69.52C195.521 69.52 196.008 69.3333 196.355 68.96C196.715 68.5733 196.895 68.0267 196.895 67.32V60.5H199.395V67.34C199.395 68.6867 198.988 69.7533 198.175 70.54C197.361 71.3133 196.268 71.7 194.895 71.7ZM207.087 71.5C206.033 71.5 205.207 71.2067 204.607 70.62C204.02 70.0333 203.727 69.2267 203.727 68.2V62.76H200.747V60.5H203.727V57.4H206.247V60.5H210.467V62.76H206.247V68.2C206.247 68.8933 206.587 69.24 207.267 69.24H210.267V71.5H207.087ZM225.191 75.1L226.731 70.9L222.631 60.5H225.371L227.411 66.12C227.518 66.4267 227.624 66.8 227.731 67.24C227.838 67.6667 227.918 68.02 227.971 68.3C228.038 68.02 228.124 67.6667 228.231 67.24C228.338 66.8 228.444 66.4267 228.551 66.12L230.471 60.5H233.111L227.811 75.1H225.191ZM238.863 71.68C237.93 71.68 237.117 71.5067 236.423 71.16C235.743 70.8 235.21 70.3 234.823 69.66C234.45 69.0067 234.263 68.24 234.263 67.36V64.64C234.263 63.76 234.45 63 234.823 62.36C235.21 61.7067 235.743 61.2067 236.423 60.86C237.117 60.5 237.93 60.32 238.863 60.32C239.81 60.32 240.623 60.5 241.303 60.86C241.983 61.2067 242.51 61.7067 242.883 62.36C243.27 63 243.463 63.7533 243.463 64.62V67.36C243.463 68.24 243.27 69.0067 242.883 69.66C242.51 70.3 241.983 70.8 241.303 71.16C240.623 71.5067 239.81 71.68 238.863 71.68ZM238.863 69.5C239.53 69.5 240.043 69.32 240.403 68.96C240.777 68.5867 240.963 68.0533 240.963 67.36V64.64C240.963 63.9333 240.777 63.4 240.403 63.04C240.043 62.68 239.53 62.5 238.863 62.5C238.21 62.5 237.697 62.68 237.323 63.04C236.95 63.4 236.763 63.9333 236.763 64.64V67.36C236.763 68.0533 236.95 68.5867 237.323 68.96C237.697 69.32 238.21 69.5 238.863 69.5ZM249.855 71.7C248.455 71.7 247.355 71.3133 246.555 70.54C245.755 69.7533 245.355 68.6867 245.355 67.34V60.5H247.855V67.32C247.855 68.0267 248.029 68.5733 248.375 68.96C248.722 69.3333 249.215 69.52 249.855 69.52C250.482 69.52 250.969 69.3333 251.315 68.96C251.675 68.5733 251.855 68.0267 251.855 67.32V60.5H254.355V67.34C254.355 68.6867 253.949 69.7533 253.135 70.54C252.322 71.3133 251.229 71.7 249.855 71.7ZM256.728 71.5V60.5H259.088V62.6H259.708L258.968 63.88C258.968 62.6933 259.234 61.8 259.768 61.2C260.301 60.6 261.088 60.3 262.128 60.3C263.314 60.3 264.248 60.6667 264.928 61.4C265.608 62.1333 265.948 63.1467 265.948 64.44V65.24H263.328V64.62C263.328 63.9133 263.141 63.3667 262.768 62.98C262.408 62.5933 261.908 62.4 261.268 62.4C260.614 62.4 260.108 62.5933 259.748 62.98C259.401 63.3667 259.228 63.9133 259.228 64.62V71.5H256.728ZM278.352 71.5V69.22H282.192V62.76H278.852V60.5H284.592V69.22H287.992V71.5H278.352ZM283.192 58.66C282.685 58.66 282.285 58.5333 281.992 58.28C281.699 58.0133 281.552 57.66 281.552 57.22C281.552 56.78 281.699 56.4333 281.992 56.18C282.285 55.9133 282.685 55.78 283.192 55.78C283.699 55.78 284.099 55.9133 284.392 56.18C284.685 56.4333 284.832 56.78 284.832 57.22C284.832 57.66 284.685 58.0133 284.392 58.28C284.099 58.5333 283.699 58.66 283.192 58.66ZM288.864 71.5V60.5H290.904V61.98H291.324L290.984 62.34C290.984 61.7267 291.158 61.2333 291.504 60.86C291.851 60.4867 292.298 60.3 292.844 60.3C293.431 60.3 293.884 60.54 294.204 61.02C294.538 61.5 294.704 62.1467 294.704 62.96L294.264 61.98H294.944L294.684 62.34C294.684 61.7267 294.858 61.2333 295.204 60.86C295.551 60.4867 296.011 60.3 296.584 60.3C297.264 60.3 297.804 60.5533 298.204 61.06C298.604 61.5667 298.804 62.2533 298.804 63.12V71.5H296.604V63.22C296.604 62.86 296.524 62.58 296.364 62.38C296.204 62.1667 295.971 62.06 295.664 62.06C295.371 62.06 295.138 62.16 294.964 62.36C294.804 62.56 294.724 62.8467 294.724 63.22V71.5H292.924V63.22C292.924 62.8467 292.844 62.56 292.684 62.36C292.524 62.16 292.291 62.06 291.984 62.06C291.678 62.06 291.444 62.16 291.284 62.36C291.138 62.56 291.064 62.8467 291.064 63.22V71.5H288.864ZM303.596 71.7C302.463 71.7 301.57 71.4 300.916 70.8C300.263 70.2 299.936 69.3933 299.936 68.38C299.936 67.3 300.296 66.4667 301.016 65.88C301.736 65.2933 302.756 65 304.076 65H306.816V64.06C306.816 63.5267 306.643 63.1133 306.296 62.82C305.95 62.5133 305.476 62.36 304.876 62.36C304.33 62.36 303.876 62.48 303.516 62.72C303.156 62.96 302.943 63.2867 302.876 63.7H300.436C300.556 62.66 301.023 61.8333 301.836 61.22C302.65 60.6067 303.69 60.3 304.956 60.3C306.303 60.3 307.363 60.64 308.136 61.32C308.923 61.9867 309.316 62.8933 309.316 64.04V71.5H306.896V69.58H306.496L306.896 69.04C306.896 69.8533 306.596 70.5 305.996 70.98C305.396 71.46 304.596 71.7 303.596 71.7ZM304.416 69.82C305.123 69.82 305.696 69.64 306.136 69.28C306.59 68.92 306.816 68.4533 306.816 67.88V66.54H304.116C303.61 66.54 303.203 66.6867 302.896 66.98C302.59 67.2733 302.436 67.66 302.436 68.14C302.436 68.66 302.61 69.0733 302.956 69.38C303.316 69.6733 303.803 69.82 304.416 69.82ZM312.849 75.1V73.02H316.109C316.669 73.02 317.089 72.88 317.369 72.6C317.649 72.3333 317.789 71.9467 317.789 71.44V70.62L317.829 68.56H317.289L317.829 68.02C317.829 68.9133 317.562 69.6133 317.029 70.12C316.509 70.6133 315.802 70.86 314.909 70.86C313.789 70.86 312.895 70.48 312.229 69.72C311.575 68.96 311.249 67.9333 311.249 66.64V64.5C311.249 63.22 311.575 62.2 312.229 61.44C312.895 60.68 313.789 60.3 314.909 60.3C315.802 60.3 316.509 60.5533 317.029 61.06C317.562 61.5533 317.829 62.2467 317.829 63.14L317.289 62.6H317.829L317.769 60.5H320.269V71.5C320.269 72.6067 319.902 73.48 319.169 74.12C318.435 74.7733 317.429 75.1 316.149 75.1H312.849ZM315.749 68.7C316.389 68.7 316.882 68.5133 317.229 68.14C317.589 67.7533 317.769 67.22 317.769 66.54V64.62C317.769 63.94 317.589 63.4133 317.229 63.04C316.882 62.6533 316.389 62.46 315.749 62.46C315.109 62.46 314.615 62.6467 314.269 63.02C313.922 63.3933 313.749 63.9267 313.749 64.62V66.54C313.749 67.2333 313.922 67.7667 314.269 68.14C314.615 68.5133 315.109 68.7 315.749 68.7ZM326.821 71.7C325.887 71.7 325.074 71.52 324.381 71.16C323.687 70.8 323.147 70.3 322.761 69.66C322.387 69.0067 322.201 68.2467 322.201 67.38V64.62C322.201 63.7533 322.387 63 322.761 62.36C323.147 61.7067 323.687 61.2 324.381 60.84C325.074 60.48 325.887 60.3 326.821 60.3C327.741 60.3 328.541 60.48 329.221 60.84C329.914 61.2 330.447 61.7067 330.821 62.36C331.207 63 331.401 63.7533 331.401 64.62V66.6H324.621V67.38C324.621 68.1533 324.807 68.74 325.181 69.14C325.554 69.5267 326.107 69.72 326.841 69.72C327.401 69.72 327.854 69.6267 328.201 69.44C328.547 69.24 328.767 68.9533 328.861 68.58H331.321C331.134 69.5267 330.627 70.2867 329.801 70.86C328.987 71.42 327.994 71.7 326.821 71.7ZM328.981 65.2V64.6C328.981 63.84 328.801 63.26 328.441 62.86C328.081 62.4467 327.541 62.24 326.821 62.24C326.101 62.24 325.554 62.4467 325.181 62.86C324.807 63.2733 324.621 63.86 324.621 64.62V65.04L329.161 65L328.981 65.2ZM89.5288 97.7C88.4354 97.7 87.5488 97.32 86.8688 96.56C86.2021 95.8 85.8688 94.78 85.8688 93.5V90.52C85.8688 89.2267 86.2021 88.2 86.8688 87.44C87.5354 86.68 88.4221 86.3 89.5288 86.3C90.4354 86.3 91.1554 86.56 91.6888 87.08C92.2221 87.5867 92.4888 88.2867 92.4888 89.18L91.9288 88.6H92.5088L92.4288 85.98V82.9H94.9288V97.5H92.4888V95.4H91.9288L92.4888 94.82C92.4888 95.7133 92.2221 96.42 91.6888 96.94C91.1554 97.4467 90.4354 97.7 89.5288 97.7ZM90.4088 95.54C91.0488 95.54 91.5421 95.3533 91.8888 94.98C92.2488 94.5933 92.4288 94.06 92.4288 93.38V90.62C92.4288 89.94 92.2488 89.4133 91.8888 89.04C91.5421 88.6533 91.0488 88.46 90.4088 88.46C89.7688 88.46 89.2688 88.6467 88.9088 89.02C88.5488 89.3933 88.3688 89.9267 88.3688 90.62V93.38C88.3688 94.0733 88.5488 94.6067 88.9088 94.98C89.2688 95.3533 89.7688 95.54 90.4088 95.54ZM101.461 97.68C100.528 97.68 99.7143 97.5067 99.0209 97.16C98.3409 96.8 97.8076 96.3 97.4209 95.66C97.0476 95.0067 96.8609 94.24 96.8609 93.36V90.64C96.8609 89.76 97.0476 89 97.4209 88.36C97.8076 87.7067 98.3409 87.2067 99.0209 86.86C99.7143 86.5 100.528 86.32 101.461 86.32C102.408 86.32 103.221 86.5 103.901 86.86C104.581 87.2067 105.108 87.7067 105.481 88.36C105.868 89 106.061 89.7533 106.061 90.62V93.36C106.061 94.24 105.868 95.0067 105.481 95.66C105.108 96.3 104.581 96.8 103.901 97.16C103.221 97.5067 102.408 97.68 101.461 97.68ZM101.461 95.5C102.128 95.5 102.641 95.32 103.001 94.96C103.374 94.5867 103.561 94.0533 103.561 93.36V90.64C103.561 89.9333 103.374 89.4 103.001 89.04C102.641 88.68 102.128 88.5 101.461 88.5C100.808 88.5 100.294 88.68 99.9209 89.04C99.5476 89.4 99.3609 89.9333 99.3609 90.64V93.36C99.3609 94.0533 99.5476 94.5867 99.9209 94.96C100.294 95.32 100.808 95.5 101.461 95.5ZM112.473 97.7C111.54 97.7 110.726 97.52 110.033 97.16C109.34 96.8 108.8 96.3 108.413 95.66C108.04 95.0067 107.853 94.2467 107.853 93.38V90.62C107.853 89.7533 108.04 89 108.413 88.36C108.8 87.7067 109.34 87.2 110.033 86.84C110.726 86.48 111.54 86.3 112.473 86.3C113.393 86.3 114.193 86.48 114.873 86.84C115.566 87.2 116.1 87.7067 116.473 88.36C116.86 89 117.053 89.7533 117.053 90.62V92.6H110.273V93.38C110.273 94.1533 110.46 94.74 110.833 95.14C111.206 95.5267 111.76 95.72 112.493 95.72C113.053 95.72 113.506 95.6267 113.853 95.44C114.2 95.24 114.42 94.9533 114.513 94.58H116.973C116.786 95.5267 116.28 96.2867 115.453 96.86C114.64 97.42 113.646 97.7 112.473 97.7ZM114.633 91.2V90.6C114.633 89.84 114.453 89.26 114.093 88.86C113.733 88.4467 113.193 88.24 112.473 88.24C111.753 88.24 111.206 88.4467 110.833 88.86C110.46 89.2733 110.273 89.86 110.273 90.62V91.04L114.813 91L114.633 91.2ZM123.025 97.68C122.185 97.68 121.452 97.5467 120.825 97.28C120.199 97.0133 119.705 96.6467 119.345 96.18C118.999 95.7 118.812 95.14 118.785 94.5H121.285C121.312 94.8467 121.479 95.1267 121.785 95.34C122.105 95.5533 122.519 95.66 123.025 95.66H123.905C124.519 95.66 124.979 95.54 125.285 95.3C125.592 95.06 125.745 94.7333 125.745 94.32C125.745 93.9333 125.605 93.6333 125.325 93.42C125.059 93.1933 124.639 93.0467 124.065 92.98L122.705 92.78C121.452 92.6067 120.532 92.2733 119.945 91.78C119.359 91.2867 119.065 90.5467 119.065 89.56C119.065 88.5333 119.412 87.74 120.105 87.18C120.799 86.6067 121.819 86.32 123.165 86.32H123.925C125.152 86.32 126.132 86.5933 126.865 87.14C127.599 87.6867 127.992 88.42 128.045 89.34H125.545C125.505 89.0467 125.339 88.8067 125.045 88.62C124.765 88.4333 124.392 88.34 123.925 88.34H123.165C122.592 88.34 122.172 88.4467 121.905 88.66C121.652 88.86 121.525 89.16 121.525 89.56C121.525 89.9333 121.639 90.2133 121.865 90.4C122.092 90.5733 122.459 90.7 122.965 90.78L124.385 90.98C125.692 91.1667 126.652 91.52 127.265 92.04C127.892 92.5467 128.205 93.3 128.205 94.3C128.205 95.3667 127.839 96.2 127.105 96.8C126.385 97.3867 125.319 97.68 123.905 97.68H123.025ZM129.978 97.5V86.5H132.418V88.6H133.098L132.418 89.18C132.418 88.2733 132.678 87.5667 133.198 87.06C133.731 86.5533 134.458 86.3 135.378 86.3C136.458 86.3 137.318 86.66 137.958 87.38C138.611 88.1 138.938 89.0667 138.938 90.28V97.5H136.438V90.54C136.438 89.8733 136.264 89.36 135.918 89C135.571 88.64 135.084 88.46 134.458 88.46C133.844 88.46 133.358 88.6467 132.998 89.02C132.651 89.3933 132.478 89.9267 132.478 90.62V97.5H129.978ZM142.33 88.2L143.93 81.98H147.13L144.53 88.2H142.33ZM157.622 97.5C156.569 97.5 155.742 97.2067 155.142 96.62C154.555 96.0333 154.262 95.2267 154.262 94.2V88.76H151.282V86.5H154.262V83.4H156.782V86.5H161.002V88.76H156.782V94.2C156.782 94.8933 157.122 95.24 157.802 95.24H160.802V97.5H157.622ZM178.426 97.7C177.493 97.7 176.68 97.52 175.986 97.16C175.293 96.8 174.753 96.3 174.366 95.66C173.993 95.0067 173.806 94.2467 173.806 93.38V90.62C173.806 89.7533 173.993 89 174.366 88.36C174.753 87.7067 175.293 87.2 175.986 86.84C176.68 86.48 177.493 86.3 178.426 86.3C179.346 86.3 180.146 86.48 180.826 86.84C181.52 87.2 182.053 87.7067 182.426 88.36C182.813 89 183.006 89.7533 183.006 90.62V92.6H176.226V93.38C176.226 94.1533 176.413 94.74 176.786 95.14C177.16 95.5267 177.713 95.72 178.446 95.72C179.006 95.72 179.46 95.6267 179.806 95.44C180.153 95.24 180.373 94.9533 180.466 94.58H182.926C182.74 95.5267 182.233 96.2867 181.406 96.86C180.593 97.42 179.6 97.7 178.426 97.7ZM180.586 91.2V90.6C180.586 89.84 180.406 89.26 180.046 88.86C179.686 88.4467 179.146 88.24 178.426 88.24C177.706 88.24 177.16 88.4467 176.786 88.86C176.413 89.2733 176.226 89.86 176.226 90.62V91.04L180.766 91L180.586 91.2ZM184.118 97.5L187.958 91.82L184.378 86.5H187.198L188.898 89.2C189.005 89.36 189.098 89.54 189.178 89.74C189.272 89.94 189.345 90.1 189.398 90.22C189.452 90.1 189.525 89.94 189.618 89.74C189.712 89.54 189.805 89.36 189.898 89.2L191.618 86.5H194.438L190.858 91.82L194.678 97.5H191.838L189.938 94.48C189.832 94.3067 189.732 94.12 189.638 93.92C189.545 93.72 189.465 93.56 189.398 93.44C189.345 93.56 189.272 93.72 189.178 93.92C189.085 94.12 188.985 94.3067 188.878 94.48L186.938 97.5H184.118ZM195.911 97.5V95.22H199.751V88.76H196.411V86.5H202.151V95.22H205.551V97.5H195.911ZM200.751 84.66C200.244 84.66 199.844 84.5333 199.551 84.28C199.257 84.0133 199.111 83.66 199.111 83.22C199.111 82.78 199.257 82.4333 199.551 82.18C199.844 81.9133 200.244 81.78 200.751 81.78C201.257 81.78 201.657 81.9133 201.951 82.18C202.244 82.4333 202.391 82.78 202.391 83.22C202.391 83.66 202.244 84.0133 201.951 84.28C201.657 84.5333 201.257 84.66 200.751 84.66ZM210.963 97.68C210.123 97.68 209.389 97.5467 208.763 97.28C208.136 97.0133 207.643 96.6467 207.283 96.18C206.936 95.7 206.749 95.14 206.723 94.5H209.223C209.249 94.8467 209.416 95.1267 209.723 95.34C210.043 95.5533 210.456 95.66 210.963 95.66H211.843C212.456 95.66 212.916 95.54 213.223 95.3C213.529 95.06 213.683 94.7333 213.683 94.32C213.683 93.9333 213.543 93.6333 213.263 93.42C212.996 93.1933 212.576 93.0467 212.003 92.98L210.643 92.78C209.389 92.6067 208.469 92.2733 207.883 91.78C207.296 91.2867 207.003 90.5467 207.003 89.56C207.003 88.5333 207.349 87.74 208.043 87.18C208.736 86.6067 209.756 86.32 211.103 86.32H211.863C213.089 86.32 214.069 86.5933 214.803 87.14C215.536 87.6867 215.929 88.42 215.983 89.34H213.483C213.443 89.0467 213.276 88.8067 212.983 88.62C212.703 88.4333 212.329 88.34 211.863 88.34H211.103C210.529 88.34 210.109 88.4467 209.843 88.66C209.589 88.86 209.463 89.16 209.463 89.56C209.463 89.9333 209.576 90.2133 209.803 90.4C210.029 90.5733 210.396 90.7 210.903 90.78L212.323 90.98C213.629 91.1667 214.589 91.52 215.203 92.04C215.829 92.5467 216.143 93.3 216.143 94.3C216.143 95.3667 215.776 96.2 215.043 96.8C214.323 97.3867 213.256 97.68 211.843 97.68H210.963ZM223.575 97.5C222.522 97.5 221.695 97.2067 221.095 96.62C220.508 96.0333 220.215 95.2267 220.215 94.2V88.76H217.235V86.5H220.215V83.4H222.735V86.5H226.955V88.76H222.735V94.2C222.735 94.8933 223.075 95.24 223.755 95.24H226.755V97.5H223.575ZM243.139 97.7C242.006 97.7 241.113 97.4 240.459 96.8C239.806 96.2 239.479 95.3933 239.479 94.38C239.479 93.3 239.839 92.4667 240.559 91.88C241.279 91.2933 242.299 91 243.619 91H246.359V90.06C246.359 89.5267 246.186 89.1133 245.839 88.82C245.493 88.5133 245.019 88.36 244.419 88.36C243.873 88.36 243.419 88.48 243.059 88.72C242.699 88.96 242.486 89.2867 242.419 89.7H239.979C240.099 88.66 240.566 87.8333 241.379 87.22C242.193 86.6067 243.233 86.3 244.499 86.3C245.846 86.3 246.906 86.64 247.679 87.32C248.466 87.9867 248.859 88.8933 248.859 90.04V97.5H246.439V95.58H246.039L246.439 95.04C246.439 95.8533 246.139 96.5 245.539 96.98C244.939 97.46 244.139 97.7 243.139 97.7ZM243.959 95.82C244.666 95.82 245.239 95.64 245.679 95.28C246.133 94.92 246.359 94.4533 246.359 93.88V92.54H243.659C243.153 92.54 242.746 92.6867 242.439 92.98C242.133 93.2733 241.979 93.66 241.979 94.14C241.979 94.66 242.153 95.0733 242.499 95.38C242.859 95.6733 243.346 95.82 243.959 95.82ZM250.892 97.5V86.5H253.332V88.6H254.012L253.332 89.18C253.332 88.2733 253.592 87.5667 254.112 87.06C254.645 86.5533 255.372 86.3 256.292 86.3C257.372 86.3 258.232 86.66 258.872 87.38C259.525 88.1 259.852 89.0667 259.852 90.28V97.5H257.352V90.54C257.352 89.8733 257.178 89.36 256.832 89C256.485 88.64 255.998 88.46 255.372 88.46C254.758 88.46 254.272 88.6467 253.912 89.02C253.565 89.3933 253.392 89.9267 253.392 90.62V97.5H250.892ZM263.664 101.1L265.204 96.9L261.104 86.5H263.844L265.884 92.12C265.99 92.4267 266.097 92.8 266.204 93.24C266.31 93.6667 266.39 94.02 266.444 94.3C266.51 94.02 266.597 93.6667 266.704 93.24C266.81 92.8 266.917 92.4267 267.024 92.12L268.944 86.5H271.584L266.284 101.1H263.664ZM272.376 97.5V86.5H274.416V87.98H274.836L274.496 88.34C274.496 87.7267 274.669 87.2333 275.016 86.86C275.363 86.4867 275.809 86.3 276.356 86.3C276.943 86.3 277.396 86.54 277.716 87.02C278.049 87.5 278.216 88.1467 278.216 88.96L277.776 87.98H278.456L278.196 88.34C278.196 87.7267 278.369 87.2333 278.716 86.86C279.063 86.4867 279.523 86.3 280.096 86.3C280.776 86.3 281.316 86.5533 281.716 87.06C282.116 87.5667 282.316 88.2533 282.316 89.12V97.5H280.116V89.22C280.116 88.86 280.036 88.58 279.876 88.38C279.716 88.1667 279.483 88.06 279.176 88.06C278.883 88.06 278.649 88.16 278.476 88.36C278.316 88.56 278.236 88.8467 278.236 89.22V97.5H276.436V89.22C276.436 88.8467 276.356 88.56 276.196 88.36C276.036 88.16 275.803 88.06 275.496 88.06C275.189 88.06 274.956 88.16 274.796 88.36C274.649 88.56 274.576 88.8467 274.576 89.22V97.5H272.376ZM288.328 97.68C287.395 97.68 286.581 97.5067 285.888 97.16C285.208 96.8 284.675 96.3 284.288 95.66C283.915 95.0067 283.728 94.24 283.728 93.36V90.64C283.728 89.76 283.915 89 284.288 88.36C284.675 87.7067 285.208 87.2067 285.888 86.86C286.581 86.5 287.395 86.32 288.328 86.32C289.275 86.32 290.088 86.5 290.768 86.86C291.448 87.2067 291.975 87.7067 292.348 88.36C292.735 89 292.928 89.7533 292.928 90.62V93.36C292.928 94.24 292.735 95.0067 292.348 95.66C291.975 96.3 291.448 96.8 290.768 97.16C290.088 97.5067 289.275 97.68 288.328 97.68ZM288.328 95.5C288.995 95.5 289.508 95.32 289.868 94.96C290.241 94.5867 290.428 94.0533 290.428 93.36V90.64C290.428 89.9333 290.241 89.4 289.868 89.04C289.508 88.68 288.995 88.5 288.328 88.5C287.675 88.5 287.161 88.68 286.788 89.04C286.415 89.4 286.228 89.9333 286.228 90.64V93.36C286.228 94.0533 286.415 94.5867 286.788 94.96C287.161 95.32 287.675 95.5 288.328 95.5ZM295.2 97.5V86.5H297.56V88.6H298.18L297.44 89.88C297.44 88.6933 297.707 87.8 298.24 87.2C298.774 86.6 299.56 86.3 300.6 86.3C301.787 86.3 302.72 86.6667 303.4 87.4C304.08 88.1333 304.42 89.1467 304.42 90.44V91.24H301.8V90.62C301.8 89.9133 301.614 89.3667 301.24 88.98C300.88 88.5933 300.38 88.4 299.74 88.4C299.087 88.4 298.58 88.5933 298.22 88.98C297.874 89.3667 297.7 89.9133 297.7 90.62V97.5H295.2ZM310.333 97.7C309.399 97.7 308.586 97.52 307.893 97.16C307.199 96.8 306.659 96.3 306.273 95.66C305.899 95.0067 305.713 94.2467 305.713 93.38V90.62C305.713 89.7533 305.899 89 306.273 88.36C306.659 87.7067 307.199 87.2 307.893 86.84C308.586 86.48 309.399 86.3 310.333 86.3C311.253 86.3 312.053 86.48 312.733 86.84C313.426 87.2 313.959 87.7067 314.333 88.36C314.719 89 314.913 89.7533 314.913 90.62V92.6H308.133V93.38C308.133 94.1533 308.319 94.74 308.693 95.14C309.066 95.5267 309.619 95.72 310.353 95.72C310.913 95.72 311.366 95.6267 311.713 95.44C312.059 95.24 312.279 94.9533 312.373 94.58H314.833C314.646 95.5267 314.139 96.2867 313.313 96.86C312.499 97.42 311.506 97.7 310.333 97.7ZM312.493 91.2V90.6C312.493 89.84 312.313 89.26 311.953 88.86C311.593 88.4467 311.053 88.24 310.333 88.24C309.613 88.24 309.066 88.4467 308.693 88.86C308.319 89.2733 308.133 89.86 308.133 90.62V91.04L312.673 91L312.493 91.2ZM332.297 89.66C331.737 89.66 331.284 89.5067 330.937 89.2C330.604 88.88 330.437 88.4733 330.437 87.98C330.437 87.4733 330.604 87.0667 330.937 86.76C331.284 86.4533 331.737 86.3 332.297 86.3C332.857 86.3 333.304 86.4533 333.637 86.76C333.984 87.0667 334.157 87.4733 334.157 87.98C334.157 88.4733 333.984 88.88 333.637 89.2C333.304 89.5067 332.857 89.66 332.297 89.66ZM332.297 97.7C331.737 97.7 331.284 97.5467 330.937 97.24C330.604 96.9333 330.437 96.5267 330.437 96.02C330.437 95.5133 330.604 95.1067 330.937 94.8C331.284 94.4933 331.737 94.34 332.297 94.34C332.857 94.34 333.304 94.4933 333.637 94.8C333.984 95.1067 334.157 95.5133 334.157 96.02C334.157 96.5267 333.984 96.9333 333.637 97.24C333.304 97.5467 332.857 97.7 332.297 97.7ZM346.989 99.9C344.962 99.3667 343.396 98.4267 342.289 97.08C341.182 95.72 340.629 94.0667 340.629 92.12V88.5C340.629 87.22 340.882 86.06 341.389 85.02C341.909 83.9667 342.642 83.0733 343.589 82.34C344.549 81.5933 345.682 81.0467 346.989 80.7V83.16C346.202 83.3467 345.516 83.6867 344.929 84.18C344.356 84.6733 343.916 85.2867 343.609 86.02C343.302 86.7533 343.149 87.58 343.149 88.5V92.12C343.149 93.0133 343.302 93.8267 343.609 94.56C343.916 95.28 344.356 95.8867 344.929 96.38C345.516 96.86 346.202 97.1933 346.989 97.38V99.9Z" fill="white"/>
<circle cx="444.5" cy="77.5" r="63.125" fill="#202220"/>
<line x1="409.754" y1="45.7392" x2="439.062" y2="75.0472" stroke="#454C48" stroke-width="8"/>
<line x1="451.837" y1="45.7392" x2="481.145" y2="75.0472" stroke="#454C48" stroke-width="8"/>
<line y1="-4" x2="41.4478" y2="-4" transform="matrix(-0.707107 0.707107 0.707107 0.707107 482.826 48.5676)" stroke="#454C48" stroke-width="8"/>
<line y1="-4" x2="41.4478" y2="-4" transform="matrix(-0.707107 0.707107 0.707107 0.707107 440.743 48.5676)" stroke="#454C48" stroke-width="8"/>
<line x1="412.141" y1="88.1541" x2="478.271" y2="87.4026" stroke="#454C48" stroke-width="8"/>
<path d="M478.317 94.1834C478.317 104.144 470.242 112.219 460.281 112.219C450.32 112.219 442.245 104.144 442.245 94.1834C442.245 84.2226 450.32 86.328 460.281 86.328C470.242 86.328 478.317 84.2226 478.317 94.1834Z" fill="#454C48"/>
<rect x="2" y="2" width="588" height="151" rx="14" stroke="#454C48" stroke-width="4" stroke-dasharray="8 8"/>
</svg>
